Sekuya-Regular.ufo
<glyph name="exclam" format="2">
  <advance width="297"/>
  <unicode hex="0021"/>
  <outline>
    <contour>
      <point x="84" y="231" type="line"/>
      <point x="211" y="231" type="line"/>
      <point x="259" y="721" type="line"/>
      <point x="36" y="721" type="line"/>
    </contour>
    <component base="period" yOffset="-1"/>
  </outline>
</glyph>
<glyph name="quotedbl" format="2">
  <advance width="565"/>
  <unicode hex="0022"/>
  <outline>
    <contour>
      <point x="320" y="644" type="curve" smooth="yes"/>
      <point x="264" y="386" type="line"/>
      <point x="381" y="386" type="line"/>
      <point x="540" y="700" type="line"/>
      <point x="328" y="700" type="line"/>
      <point x="328" y="687"/>
      <point x="325" y="668"/>
    </contour>
    <contour>
      <point x="25" y="386" type="line"/>
      <point x="142" y="386" type="line"/>
      <point x="301" y="700" type="line"/>
      <point x="88" y="700" type="line"/>
    </contour>
  </outline>
</glyph>
<glyph name="numbersign" format="2">
  <advance width="762"/>
  <unicode hex="0023"/>
  <outline>
    <contour>
      <point x="115" y="-2" type="line"/>
      <point x="238" y="-2" type="line"/>
      <point x="270" y="173" type="line"/>
      <point x="418" y="173" type="line"/>
      <point x="386" y="-2" type="line"/>
      <point x="508" y="-2" type="line"/>
      <point x="540" y="173" type="line"/>
      <point x="668" y="173" type="line"/>
      <point x="689" y="274" type="line"/>
      <point x="555" y="274" type="line"/>
      <point x="593" y="470" type="line"/>
      <point x="721" y="470" type="line"/>
      <point x="737" y="571" type="line"/>
      <point x="610" y="571" type="line"/>
      <point x="647" y="779" type="line"/>
      <point x="525" y="779" type="line"/>
      <point x="487" y="571" type="line"/>
      <point x="339" y="571" type="line"/>
      <point x="376" y="779" type="line"/>
      <point x="254" y="779" type="line"/>
      <point x="216" y="571" type="line"/>
      <point x="95" y="571" type="line"/>
      <point x="78" y="470" type="line"/>
      <point x="200" y="470" type="line"/>
      <point x="163" y="274" type="line"/>
      <point x="46" y="274" type="line"/>
      <point x="25" y="173" type="line"/>
      <point x="147" y="173" type="line"/>
    </contour>
    <contour>
      <point x="286" y="274" type="line"/>
      <point x="322" y="470" type="line"/>
      <point x="471" y="470" type="line"/>
      <point x="434" y="274" type="line"/>
    </contour>
  </outline>
</glyph>
<glyph name="dollar" format="2">
  <advance width="688"/>
  <unicode hex="0024"/>
  <anchor x="330.282" y="47" name="bottom"/>
  <anchor x="330.282" y="668.179" name="top"/>
  <outline>
    <contour>
      <point x="315" y="805" type="line"/>
      <point x="315" y="695" type="line"/>
      <point x="159" y="681"/>
      <point x="20" y="621"/>
      <point x="20" y="463" type="curve" smooth="yes"/>
      <point x="20" y="362"/>
      <point x="85" y="313"/>
      <point x="182" y="277" type="curve" smooth="yes"/>
      <point x="368" y="215" type="line" smooth="yes"/>
      <point x="392" y="208"/>
      <point x="422" y="198"/>
      <point x="422" y="176" type="curve" smooth="yes"/>
      <point x="422" y="148"/>
      <point x="386" y="138"/>
      <point x="349" y="138" type="curve" smooth="yes"/>
      <point x="242" y="138"/>
      <point x="137" y="172"/>
      <point x="33" y="238" type="curve"/>
      <point x="33" y="46" type="line"/>
      <point x="118" y="19"/>
      <point x="211" y="4"/>
      <point x="315" y="3" type="curve"/>
      <point x="315" y="-99" type="line"/>
      <point x="410" y="-99" type="line"/>
      <point x="410" y="7" type="line"/>
      <point x="567" y="25"/>
      <point x="678" y="98"/>
      <point x="678" y="240" type="curve" smooth="yes"/>
      <point x="678" y="373"/>
      <point x="539" y="413"/>
      <point x="451" y="437" type="curve" smooth="yes"/>
      <point x="345" y="465"/>
      <point x="295" y="480"/>
      <point x="295" y="518" type="curve" smooth="yes"/>
      <point x="295" y="555"/>
      <point x="339" y="557"/>
      <point x="376" y="557" type="curve" smooth="yes"/>
      <point x="474" y="557"/>
      <point x="559" y="527"/>
      <point x="636" y="467" type="curve"/>
      <point x="636" y="658" type="line"/>
      <point x="575" y="683"/>
      <point x="498" y="696"/>
      <point x="410" y="698" type="curve"/>
      <point x="410" y="805" type="line"/>
    </contour>
  </outline>
</glyph>
<glyph name="percent" format="2">
  <advance width="1088"/>
  <unicode hex="0025"/>
  <outline>
    <contour>
      <point x="159" y="-21" type="line"/>
      <point x="301" y="-21" type="line"/>
      <point x="933" y="752" type="line"/>
      <point x="790" y="752" type="line"/>
    </contour>
    <contour>
      <point x="254" y="386" type="curve" smooth="yes"/>
      <point x="404" y="386"/>
      <point x="488" y="460"/>
      <point x="488" y="576" type="curve" smooth="yes"/>
      <point x="488" y="707"/>
      <point x="371" y="752"/>
      <point x="254" y="752" type="curve" smooth="yes"/>
      <point x="105" y="752"/>
      <point x="25" y="681"/>
      <point x="25" y="563" type="curve" smooth="yes"/>
      <point x="25" y="444"/>
      <point x="130" y="386"/>
    </contour>
    <contour>
      <point x="254" y="479" type="curve" smooth="yes"/>
      <point x="209" y="479"/>
      <point x="191" y="523"/>
      <point x="191" y="573" type="curve" smooth="yes"/>
      <point x="191" y="623"/>
      <point x="209" y="667"/>
      <point x="254" y="667" type="curve" smooth="yes"/>
      <point x="299" y="667"/>
      <point x="318" y="623"/>
      <point x="318" y="573" type="curve" smooth="yes"/>
      <point x="318" y="523"/>
      <point x="299" y="479"/>
    </contour>
    <contour>
      <point x="828" y="-25" type="curve" smooth="yes"/>
      <point x="978" y="-25"/>
      <point x="1062" y="49"/>
      <point x="1062" y="165" type="curve" smooth="yes"/>
      <point x="1062" y="296"/>
      <point x="945" y="341"/>
      <point x="828" y="341" type="curve" smooth="yes"/>
      <point x="679" y="341"/>
      <point x="599" y="270"/>
      <point x="599" y="152" type="curve" smooth="yes"/>
      <point x="599" y="33"/>
      <point x="704" y="-25"/>
    </contour>
    <contour>
      <point x="828" y="68" type="curve" smooth="yes"/>
      <point x="783" y="68"/>
      <point x="765" y="112"/>
      <point x="765" y="162" type="curve" smooth="yes"/>
      <point x="765" y="212"/>
      <point x="783" y="256"/>
      <point x="828" y="256" type="curve" smooth="yes"/>
      <point x="873" y="256"/>
      <point x="892" y="212"/>
      <point x="892" y="162" type="curve" smooth="yes"/>
      <point x="892" y="112"/>
      <point x="873" y="68"/>
    </contour>
  </outline>
</glyph>
<glyph name="ampersand" format="2">
  <advance width="1042"/>
  <unicode hex="0026"/>
  <outline>
    <contour>
      <point x="25" y="169" type="curve" smooth="yes"/>
      <point x="25" y="8"/>
      <point x="214" y="-25"/>
      <point x="342" y="-25" type="curve" smooth="yes"/>
      <point x="441" y="-25"/>
      <point x="542" y="-3"/>
      <point x="611" y="27" type="curve" smooth="yes"/>
      <point x="650" y="44"/>
      <point x="662" y="35"/>
      <point x="662" y="25" type="curve" smooth="yes"/>
      <point x="662" y="18"/>
      <point x="660" y="13"/>
      <point x="646" y="-2" type="curve"/>
      <point x="687" y="0"/>
      <point x="731" y="0"/>
      <point x="775" y="0" type="curve" smooth="yes"/>
      <point x="863" y="0"/>
      <point x="951" y="-2"/>
      <point x="1017" y="-2" type="curve"/>
      <point x="992" y="9"/>
      <point x="968" y="23"/>
      <point x="943" y="40" type="curve" smooth="yes"/>
      <point x="789" y="157" type="line"/>
      <point x="842" y="226"/>
      <point x="869" y="306"/>
      <point x="869" y="396" type="curve"/>
      <point x="646" y="396" type="line"/>
      <point x="639" y="341"/>
      <point x="632" y="302"/>
      <point x="625" y="279" type="curve"/>
      <point x="493" y="381" type="line"/>
      <point x="581" y="409"/>
      <point x="687" y="447"/>
      <point x="687" y="553" type="curve" smooth="yes"/>
      <point x="687" y="676"/>
      <point x="555" y="719"/>
      <point x="415" y="719" type="curve" smooth="yes"/>
      <point x="269" y="719"/>
      <point x="103" y="664"/>
      <point x="103" y="525" type="curve" smooth="yes"/>
      <point x="103" y="459"/>
      <point x="144" y="403"/>
      <point x="207" y="359" type="curve"/>
      <point x="109" y="330"/>
      <point x="25" y="263"/>
    </contour>
    <contour>
      <point x="414" y="104" type="curve" smooth="yes"/>
      <point x="360" y="104"/>
      <point x="279" y="133"/>
      <point x="279" y="199" type="curve" smooth="yes"/>
      <point x="279" y="231"/>
      <point x="289" y="257"/>
      <point x="311" y="279" type="curve"/>
      <point x="518" y="136" type="line"/>
      <point x="483" y="115"/>
      <point x="448" y="104"/>
    </contour>
    <contour>
      <point x="412" y="438" type="curve"/>
      <point x="367" y="471"/>
      <point x="329" y="509"/>
      <point x="329" y="546" type="curve" smooth="yes"/>
      <point x="329" y="571"/>
      <point x="350" y="605"/>
      <point x="397" y="605" type="curve" smooth="yes"/>
      <point x="445" y="605"/>
      <point x="481" y="587"/>
      <point x="481" y="539" type="curve" smooth="yes"/>
      <point x="481" y="494"/>
      <point x="456" y="466"/>
    </contour>
  </outline>
</glyph>
<glyph name="quotesingle" format="2">
  <advance width="325"/>
  <unicode hex="0027"/>
  <outline>
    <contour>
      <point x="25" y="386" type="line"/>
      <point x="142" y="386" type="line"/>
      <point x="301" y="700" type="line"/>
      <point x="88" y="700" type="line"/>
    </contour>
  </outline>
</glyph>
<glyph name="parenleft" format="2">
  <advance width="285"/>
  <unicode hex="0028"/>
  <outline>
    <contour>
      <point x="191" y="-95" type="curve"/>
      <point x="260" y="-95" type="line"/>
      <point x="195" y="41"/>
      <point x="163" y="187"/>
      <point x="163" y="334" type="curve" smooth="yes"/>
      <point x="163" y="476"/>
      <point x="193" y="618"/>
      <point x="255" y="750" type="curve"/>
      <point x="181" y="750" type="line"/>
      <point x="80" y="623"/>
      <point x="25" y="500"/>
      <point x="25" y="330" type="curve" smooth="yes"/>
      <point x="25" y="192"/>
      <point x="70" y="39"/>
    </contour>
  </outline>
</glyph>
<glyph name="parenright" format="2">
  <advance width="285"/>
  <unicode hex="0029"/>
  <outline>
    <contour>
      <point x="25" y="-95" type="curve"/>
      <point x="94" y="-95" type="line"/>
      <point x="215" y="39"/>
      <point x="260" y="192"/>
      <point x="260" y="330" type="curve" smooth="yes"/>
      <point x="260" y="500"/>
      <point x="205" y="623"/>
      <point x="104" y="750" type="curve"/>
      <point x="30" y="750" type="line"/>
      <point x="92" y="618"/>
      <point x="122" y="476"/>
      <point x="122" y="334" type="curve" smooth="yes"/>
      <point x="122" y="187"/>
      <point x="90" y="41"/>
    </contour>
  </outline>
</glyph>
<glyph name="asterisk" format="2">
  <advance width="411"/>
  <unicode hex="002A"/>
  <outline>
    <contour>
      <point x="172" y="614" type="curve"/>
      <point x="141" y="502" type="line"/>
      <point x="269" y="502" type="line"/>
      <point x="258" y="547"/>
      <point x="247" y="586"/>
      <point x="237" y="619" type="curve"/>
      <point x="283" y="580" type="line"/>
      <point x="328" y="540" type="line"/>
      <point x="336" y="552"/>
      <point x="347" y="571"/>
      <point x="360" y="597" type="curve" smooth="yes"/>
      <point x="386" y="646" type="line"/>
      <point x="377" y="650"/>
      <point x="361" y="653"/>
      <point x="342" y="660" type="curve" smooth="yes"/>
      <point x="284" y="681" type="line"/>
      <point x="295" y="686"/>
      <point x="314" y="692"/>
      <point x="337" y="697" type="curve" smooth="yes"/>
      <point x="362" y="703"/>
      <point x="379" y="707"/>
      <point x="386" y="710" type="curve"/>
      <point x="357" y="765" type="line"/>
      <point x="328" y="821" type="line"/>
      <point x="317" y="812"/>
      <point x="302" y="798"/>
      <point x="283" y="779" type="curve" smooth="yes"/>
      <point x="237" y="736" type="line"/>
      <point x="269" y="853" type="line"/>
      <point x="141" y="853" type="line"/>
      <point x="171" y="739" type="line"/>
      <point x="163" y="747"/>
      <point x="110" y="799"/>
      <point x="88" y="821" type="curve"/>
      <point x="25" y="710" type="line"/>
      <point x="49" y="702"/>
      <point x="120" y="682"/>
      <point x="131" y="679" type="curve"/>
      <point x="79" y="663" type="line"/>
      <point x="25" y="646" type="line"/>
      <point x="88" y="534" type="line"/>
      <point x="116" y="567"/>
      <point x="148" y="591"/>
    </contour>
  </outline>
</glyph>
<glyph name="plus" format="2">
  <advance width="694"/>
  <unicode hex="002B"/>
  <outline>
    <contour>
      <point x="297" y="52" type="line"/>
      <point x="398" y="52" type="line"/>
      <point x="398" y="322" type="line"/>
      <point x="669" y="322" type="line"/>
      <point x="669" y="423" type="line"/>
      <point x="398" y="423" type="line"/>
      <point x="398" y="694" type="line"/>
      <point x="297" y="694" type="line"/>
      <point x="297" y="423" type="line"/>
      <point x="25" y="423" type="line"/>
      <point x="25" y="322" type="line"/>
      <point x="297" y="322" type="line"/>
    </contour>
  </outline>
</glyph>
<glyph name="comma" format="2">
  <advance width="331"/>
  <unicode hex="002C"/>
  <outline>
    <contour>
      <point x="25" y="-171" type="line"/>
      <point x="157" y="-171" type="line"/>
      <point x="228" y="-23" type="line" smooth="yes"/>
      <point x="263" y="49"/>
      <point x="289" y="104"/>
      <point x="306" y="143" type="curve"/>
      <point x="89" y="143" type="line"/>
      <point x="89" y="112"/>
      <point x="87" y="92"/>
      <point x="83" y="83" type="curve"/>
      <point x="50" y="-61" type="line"/>
    </contour>
  </outline>
</glyph>
<glyph name="period" format="2">
  <advance width="299"/>
  <unicode hex="002E"/>
  <outline>
    <contour>
      <point x="151" y="-21" type="curve" smooth="yes"/>
      <point x="230" y="-21"/>
      <point x="274" y="12"/>
      <point x="274" y="68" type="curve" smooth="yes"/>
      <point x="274" y="123"/>
      <point x="230" y="156"/>
      <point x="151" y="156" type="curve" smooth="yes"/>
      <point x="70" y="156"/>
      <point x="26" y="123"/>
      <point x="26" y="68" type="curve" smooth="yes"/>
      <point x="26" y="12"/>
      <point x="70" y="-21"/>
    </contour>
  </outline>
</glyph>
<glyph name="slash" format="2">
  <advance width="484"/>
  <unicode hex="002F"/>
  <outline>
    <contour>
      <point x="25" y="-118" type="line"/>
      <point x="147" y="-118" type="line"/>
      <point x="459" y="752" type="line"/>
      <point x="339" y="752" type="line"/>
    </contour>
  </outline>
</glyph>
<glyph name="zero" format="2">
  <advance width="990"/>
  <unicode hex="0030"/>
  <outline>
    <contour>
      <point x="25" y="348" type="curve" smooth="yes"/>
      <point x="25" y="85"/>
      <point x="236" y="-23"/>
      <point x="502" y="-23" type="curve" smooth="yes"/>
      <point x="763" y="-23"/>
      <point x="965" y="92"/>
      <point x="965" y="353" type="curve" smooth="yes"/>
      <point x="965" y="583"/>
      <point x="794" y="718"/>
      <point x="500" y="718" type="curve" smooth="yes"/>
      <point x="229" y="718"/>
      <point x="25" y="615"/>
    </contour>
    <contour>
      <point x="496" y="134" type="curve" smooth="yes"/>
      <point x="372" y="134"/>
      <point x="343" y="220"/>
      <point x="343" y="344" type="curve" smooth="yes"/>
      <point x="343" y="470"/>
      <point x="375" y="578"/>
      <point x="496" y="578" type="curve" smooth="yes"/>
      <point x="623" y="578"/>
      <point x="645" y="447"/>
      <point x="645" y="345" type="curve" smooth="yes"/>
      <point x="645" y="248"/>
      <point x="626" y="134"/>
    </contour>
  </outline>
</glyph>
<glyph name="one" format="2">
  <advance width="552"/>
  <unicode hex="0031"/>
  <outline>
    <contour>
      <point x="141" y="0" type="curve"/>
      <point x="527" y="0" type="line"/>
      <point x="492" y="19"/>
      <point x="476" y="51"/>
      <point x="476" y="96" type="curve" smooth="yes"/>
      <point x="476" y="700" type="line"/>
      <point x="270" y="700" type="line"/>
      <point x="193" y="664"/>
      <point x="112" y="626"/>
      <point x="25" y="587" type="curve"/>
      <point x="25" y="463" type="line"/>
      <point x="192" y="521" type="line"/>
      <point x="192" y="96" type="line" smooth="yes"/>
      <point x="192" y="51"/>
      <point x="176" y="19"/>
    </contour>
  </outline>
</glyph>
<glyph name="two" format="2">
  <advance width="756"/>
  <unicode hex="0032"/>
  <outline>
    <contour>
      <point x="25" y="191" type="curve"/>
      <point x="25" y="0" type="line"/>
      <point x="731" y="0" type="line"/>
      <point x="731" y="254" type="line"/>
      <point x="712" y="215"/>
      <point x="671" y="192"/>
      <point x="630" y="192" type="curve" smooth="yes"/>
      <point x="388" y="192" type="line"/>
      <point x="518" y="251"/>
      <point x="697" y="361"/>
      <point x="697" y="506" type="curve" smooth="yes"/>
      <point x="697" y="668"/>
      <point x="537" y="721"/>
      <point x="368" y="721" type="curve" smooth="yes"/>
      <point x="263" y="721"/>
      <point x="120" y="702"/>
      <point x="29" y="650" type="curve"/>
      <point x="29" y="479" type="line"/>
      <point x="91" y="521"/>
      <point x="158" y="542"/>
      <point x="228" y="542" type="curve" smooth="yes"/>
      <point x="294" y="542"/>
      <point x="368" y="529"/>
      <point x="368" y="453" type="curve" smooth="yes"/>
      <point x="368" y="389"/>
      <point x="300" y="332"/>
      <point x="243" y="296" type="curve" smooth="yes"/>
      <point x="195" y="266"/>
      <point x="122" y="231"/>
    </contour>
  </outline>
</glyph>
<glyph name="three" format="2">
  <advance width="766"/>
  <unicode hex="0033"/>
  <outline>
    <contour>
      <point x="307" y="-24" type="curve" smooth="yes"/>
      <point x="483" y="-24"/>
      <point x="741" y="21"/>
      <point x="741" y="197" type="curve" smooth="yes"/>
      <point x="741" y="318"/>
      <point x="632" y="354"/>
      <point x="509" y="360" type="curve"/>
      <point x="511" y="366" type="line"/>
      <point x="618" y="392"/>
      <point x="702" y="429"/>
      <point x="702" y="539" type="curve" smooth="yes"/>
      <point x="702" y="691"/>
      <point x="517" y="721"/>
      <point x="365" y="721" type="curve" smooth="yes"/>
      <point x="272" y="721"/>
      <point x="157" y="710"/>
      <point x="54" y="668" type="curve"/>
      <point x="54" y="484" type="line"/>
      <point x="154" y="541"/>
      <point x="224" y="546"/>
      <point x="310" y="546" type="curve" smooth="yes"/>
      <point x="366" y="546"/>
      <point x="422" y="535"/>
      <point x="422" y="486" type="curve" smooth="yes"/>
      <point x="422" y="432"/>
      <point x="364" y="413"/>
      <point x="310" y="413" type="curve" smooth="yes"/>
      <point x="169" y="413" type="line"/>
      <point x="169" y="278" type="line"/>
      <point x="317" y="278" type="line" smooth="yes"/>
      <point x="370" y="278"/>
      <point x="419" y="265"/>
      <point x="419" y="213" type="curve" smooth="yes"/>
      <point x="419" y="157"/>
      <point x="356" y="142"/>
      <point x="302" y="142" type="curve" smooth="yes"/>
      <point x="189" y="142"/>
      <point x="97" y="161"/>
      <point x="25" y="210" type="curve"/>
      <point x="25" y="19" type="line"/>
      <point x="96" y="-8"/>
      <point x="190" y="-24"/>
    </contour>
  </outline>
</glyph>
<glyph name="four" format="2">
  <advance width="876"/>
  <unicode hex="0034"/>
  <outline>
    <contour>
      <point x="397" y="0" type="curve"/>
      <point x="782" y="0" type="line"/>
      <point x="749" y="19"/>
      <point x="731" y="50"/>
      <point x="731" y="91" type="curve" smooth="yes"/>
      <point x="731" y="152" type="line"/>
      <point x="851" y="152" type="line"/>
      <point x="851" y="314" type="line"/>
      <point x="731" y="314" type="line"/>
      <point x="731" y="703" type="line"/>
      <point x="388" y="703" type="line"/>
      <point x="26" y="314" type="line"/>
      <point x="26" y="152" type="line"/>
      <point x="447" y="152" type="line"/>
      <point x="447" y="91" type="line" smooth="yes"/>
      <point x="447" y="51"/>
      <point x="430" y="21"/>
    </contour>
    <contour>
      <point x="447" y="314" type="line"/>
      <point x="276" y="314" type="line"/>
      <point x="447" y="492" type="line"/>
    </contour>
  </outline>
</glyph>
<glyph name="five" format="2">
  <advance width="757"/>
  <unicode hex="0035"/>
  <outline>
    <contour>
      <point x="276" y="-23" type="curve" smooth="yes"/>
      <point x="486" y="-23"/>
      <point x="732" y="22"/>
      <point x="732" y="228" type="curve" smooth="yes"/>
      <point x="732" y="399"/>
      <point x="583" y="436"/>
      <point x="406" y="436" type="curve" smooth="yes"/>
      <point x="249" y="436" type="line"/>
      <point x="249" y="512" type="line"/>
      <point x="577" y="512" type="line" smooth="yes"/>
      <point x="614" y="512"/>
      <point x="651" y="493"/>
      <point x="670" y="461" type="curve"/>
      <point x="670" y="702" type="line"/>
      <point x="32" y="702" type="line"/>
      <point x="32" y="267" type="line"/>
      <point x="305" y="267" type="line" smooth="yes"/>
      <point x="359" y="267"/>
      <point x="418" y="258"/>
      <point x="418" y="204" type="curve" smooth="yes"/>
      <point x="418" y="148"/>
      <point x="348" y="141"/>
      <point x="292" y="141" type="curve" smooth="yes"/>
      <point x="202" y="141"/>
      <point x="111" y="161"/>
      <point x="25" y="202" type="curve"/>
      <point x="25" y="27" type="line"/>
      <point x="97" y="-8"/>
      <point x="182" y="-23"/>
    </contour>
  </outline>
</glyph>
<glyph name="six" format="2">
  <advance width="866"/>
  <unicode hex="0036"/>
  <outline>
    <contour>
      <point x="25" y="334" type="curve" smooth="yes"/>
      <point x="25" y="96"/>
      <point x="220" y="-23"/>
      <point x="457" y="-23" type="curve" smooth="yes"/>
      <point x="649" y="-23"/>
      <point x="842" y="48"/>
      <point x="842" y="238" type="curve" smooth="yes"/>
      <point x="842" y="414"/>
      <point x="685" y="460"/>
      <point x="545" y="460" type="curve" smooth="yes"/>
      <point x="471" y="460"/>
      <point x="406" y="445"/>
      <point x="351" y="414" type="curve"/>
      <point x="380" y="518"/>
      <point x="470" y="544"/>
      <point x="578" y="544" type="curve" smooth="yes"/>
      <point x="664" y="544"/>
      <point x="735" y="529"/>
      <point x="790" y="501" type="curve"/>
      <point x="790" y="678" type="line"/>
      <point x="709" y="706"/>
      <point x="628" y="719"/>
      <point x="545" y="719" type="curve" smooth="yes"/>
      <point x="262" y="719"/>
      <point x="25" y="590"/>
    </contour>
    <contour>
      <point x="571" y="210" type="curve" smooth="yes"/>
      <point x="571" y="156"/>
      <point x="539" y="116"/>
      <point x="475" y="116" type="curve" smooth="yes"/>
      <point x="376" y="116"/>
      <point x="343" y="195"/>
      <point x="343" y="297" type="curve"/>
      <point x="374" y="307"/>
      <point x="403" y="312"/>
      <point x="431" y="312" type="curve" smooth="yes"/>
      <point x="504" y="312"/>
      <point x="571" y="283"/>
    </contour>
  </outline>
</glyph>
<glyph name="seven" format="2">
  <advance width="771"/>
  <unicode hex="0037"/>
  <outline>
    <contour>
      <point x="117" y="0" type="curve"/>
      <point x="440" y="0" type="line"/>
      <point x="440" y="53"/>
      <point x="449" y="109"/>
      <point x="467" y="164" type="curve" smooth="yes"/>
      <point x="507" y="283"/>
      <point x="578" y="396"/>
      <point x="746" y="536" type="curve"/>
      <point x="746" y="700" type="line"/>
      <point x="25" y="700" type="line"/>
      <point x="25" y="460" type="line"/>
      <point x="44" y="495"/>
      <point x="76" y="511"/>
      <point x="121" y="511" type="curve" smooth="yes"/>
      <point x="427" y="511" type="line"/>
      <point x="356" y="446"/>
      <point x="296" y="384"/>
      <point x="248" y="320" type="curve" smooth="yes"/>
      <point x="163" y="206"/>
      <point x="120" y="99"/>
    </contour>
  </outline>
</glyph>
<glyph name="eight" format="2">
  <advance width="892"/>
  <unicode hex="0038"/>
  <outline>
    <contour>
      <point x="443" y="-23" type="curve" smooth="yes"/>
      <point x="640" y="-23"/>
      <point x="867" y="6"/>
      <point x="867" y="203" type="curve" smooth="yes"/>
      <point x="867" y="291"/>
      <point x="816" y="347"/>
      <point x="725" y="377" type="curve"/>
      <point x="787" y="409"/>
      <point x="815" y="453"/>
      <point x="815" y="531" type="curve" smooth="yes"/>
      <point x="815" y="702"/>
      <point x="615" y="717"/>
      <point x="444" y="717" type="curve" smooth="yes"/>
      <point x="270" y="717"/>
      <point x="77" y="688"/>
      <point x="77" y="522" type="curve" smooth="yes"/>
      <point x="77" y="460"/>
      <point x="91" y="401"/>
      <point x="164" y="372" type="curve"/>
      <point x="69" y="334"/>
      <point x="25" y="275"/>
      <point x="25" y="189" type="curve" smooth="yes"/>
      <point x="25" y="-12"/>
      <point x="258" y="-23"/>
    </contour>
    <contour>
      <point x="438" y="115" type="curve" smooth="yes"/>
      <point x="367" y="115"/>
      <point x="337" y="150"/>
      <point x="337" y="212" type="curve" smooth="yes"/>
      <point x="337" y="281"/>
      <point x="365" y="315"/>
      <point x="450" y="315" type="curve" smooth="yes"/>
      <point x="523" y="315"/>
      <point x="551" y="287"/>
      <point x="551" y="210" type="curve" smooth="yes"/>
      <point x="551" y="144"/>
      <point x="513" y="115"/>
    </contour>
    <contour>
      <point x="438" y="415" type="curve" smooth="yes"/>
      <point x="378" y="415"/>
      <point x="349" y="444"/>
      <point x="349" y="504" type="curve" smooth="yes"/>
      <point x="349" y="559"/>
      <point x="368" y="599"/>
      <point x="449" y="599" type="curve" smooth="yes"/>
      <point x="515" y="599"/>
      <point x="541" y="568"/>
      <point x="541" y="500" type="curve" smooth="yes"/>
      <point x="541" y="433"/>
      <point x="505" y="415"/>
    </contour>
  </outline>
</glyph>
<glyph name="nine" format="2">
  <advance width="887"/>
  <unicode hex="0039"/>
  <outline>
    <contour>
      <point x="337" y="-24" type="curve" smooth="yes"/>
      <point x="618" y="-24"/>
      <point x="862" y="101"/>
      <point x="862" y="374" type="curve" smooth="yes"/>
      <point x="862" y="606"/>
      <point x="695" y="717"/>
      <point x="455" y="717" type="curve" smooth="yes"/>
      <point x="259" y="717"/>
      <point x="25" y="654"/>
      <point x="25" y="462" type="curve" smooth="yes"/>
      <point x="25" y="304"/>
      <point x="171" y="235"/>
      <point x="332" y="235" type="curve" smooth="yes"/>
      <point x="410" y="235"/>
      <point x="479" y="245"/>
      <point x="538" y="267" type="curve"/>
      <point x="513" y="180"/>
      <point x="435" y="147"/>
      <point x="345" y="147" type="curve" smooth="yes"/>
      <point x="260" y="147"/>
      <point x="170" y="166"/>
      <point x="77" y="206" type="curve"/>
      <point x="77" y="22" type="line"/>
      <point x="159" y="-8"/>
      <point x="245" y="-24"/>
    </contour>
    <contour>
      <point x="423" y="377" type="curve" smooth="yes"/>
      <point x="362" y="377"/>
      <point x="316" y="406"/>
      <point x="316" y="465" type="curve" smooth="yes"/>
      <point x="316" y="524"/>
      <point x="364" y="554"/>
      <point x="423" y="554" type="curve" smooth="yes"/>
      <point x="503" y="554"/>
      <point x="545" y="525"/>
      <point x="545" y="384" type="curve"/>
      <point x="511" y="378"/>
      <point x="470" y="377"/>
    </contour>
  </outline>
</glyph>
<glyph name="semicolon" format="2">
  <advance width="337"/>
  <unicode hex="003B"/>
  <outline>
    <contour>
      <point x="152" y="-171" type="curve"/>
      <point x="25" y="-171" type="line"/>
      <point x="53" y="-39" type="line"/>
      <point x="78" y="79" type="line" smooth="yes"/>
      <point x="81" y="92"/>
      <point x="83" y="114"/>
      <point x="83" y="143" type="curve"/>
      <point x="302" y="143" type="line"/>
      <point x="239" y="14"/>
      <point x="189" y="-91"/>
    </contour>
    <component base="period" xOffset="30" yOffset="345"/>
  </outline>
</glyph>
<glyph name="less" format="2">
  <advance width="608"/>
  <unicode hex="003C"/>
  <outline>
    <contour>
      <point x="583" y="104" type="line"/>
      <point x="581" y="119"/>
      <point x="580" y="140"/>
      <point x="580" y="168" type="curve" smooth="yes"/>
      <point x="580" y="196"/>
      <point x="579" y="217"/>
      <point x="577" y="231" type="curve"/>
      <point x="372" y="302" type="line"/>
      <point x="174" y="370" type="line"/>
      <point x="291" y="407"/>
      <point x="426" y="453"/>
      <point x="577" y="508" type="curve"/>
      <point x="579" y="519"/>
      <point x="580" y="532"/>
      <point x="580" y="546" type="curve" smooth="yes"/>
      <point x="580" y="573"/>
      <point x="577" y="603"/>
      <point x="577" y="629" type="curve"/>
      <point x="455" y="586"/>
      <point x="271" y="522"/>
      <point x="25" y="438" type="curve"/>
      <point x="25" y="301" type="line"/>
      <point x="293" y="206" type="line"/>
    </contour>
  </outline>
</glyph>
<glyph name="equal" format="2">
  <advance width="691"/>
  <unicode hex="003D"/>
  <outline>
    <contour>
      <point x="25" y="433" type="line"/>
      <point x="25" y="540" type="line"/>
      <point x="666" y="540" type="line"/>
      <point x="666" y="433" type="line"/>
    </contour>
    <contour>
      <point x="25" y="194" type="line"/>
      <point x="25" y="296" type="line"/>
      <point x="666" y="296" type="line"/>
      <point x="666" y="194" type="line"/>
    </contour>
  </outline>
</glyph>
<glyph name="greater" format="2">
  <advance width="602"/>
  <unicode hex="003E"/>
  <outline>
    <contour>
      <point x="25" y="231" type="curve"/>
      <point x="25" y="104" type="line"/>
      <point x="200" y="164" type="line"/>
      <point x="577" y="296" type="line"/>
      <point x="577" y="438" type="line"/>
      <point x="301" y="534" type="line"/>
      <point x="25" y="629" type="line"/>
      <point x="25" y="502" type="line"/>
      <point x="120" y="473"/>
      <point x="257" y="427"/>
      <point x="434" y="364" type="curve"/>
      <point x="230" y="297" type="line" smooth="yes"/>
      <point x="139" y="267"/>
      <point x="71" y="245"/>
    </contour>
  </outline>
</glyph>
<glyph name="question" format="2">
  <advance width="555"/>
  <unicode hex="003F"/>
  <outline>
    <contour>
      <point x="347" y="231" type="curve"/>
      <point x="132" y="231" type="line"/>
      <point x="132" y="289"/>
      <point x="170" y="331"/>
      <point x="210" y="373" type="curve" smooth="yes"/>
      <point x="232" y="397"/>
      <point x="286" y="456"/>
      <point x="286" y="498" type="curve" smooth="yes"/>
      <point x="286" y="534"/>
      <point x="257" y="560"/>
      <point x="199" y="560" type="curve" smooth="yes"/>
      <point x="136" y="560"/>
      <point x="78" y="536"/>
      <point x="25" y="487" type="curve"/>
      <point x="25" y="651" type="line"/>
      <point x="96" y="695"/>
      <point x="178" y="717"/>
      <point x="273" y="717" type="curve" smooth="yes"/>
      <point x="400" y="717"/>
      <point x="531" y="678"/>
      <point x="531" y="551" type="curve" smooth="yes"/>
      <point x="531" y="414"/>
      <point x="347" y="321"/>
    </contour>
    <component base="period" xOffset="90" yOffset="-1"/>
  </outline>
</glyph>
<glyph name="at" format="2">
  <advance width="1095"/>
  <unicode hex="0040"/>
  <outline>
    <contour>
      <point x="663" y="-80" type="curve"/>
      <point x="663" y="-134" type="line"/>
      <point x="595" y="-164"/>
      <point x="520" y="-174"/>
      <point x="450" y="-174" type="curve" smooth="yes"/>
      <point x="213" y="-174"/>
      <point x="25" y="-17"/>
      <point x="25" y="211" type="curve" smooth="yes"/>
      <point x="25" y="532"/>
      <point x="339" y="680"/>
      <point x="587" y="680" type="curve" smooth="yes"/>
      <point x="841" y="680"/>
      <point x="1070" y="587"/>
      <point x="1070" y="343" type="curve" smooth="yes"/>
      <point x="1070" y="155"/>
      <point x="929" y="39"/>
      <point x="755" y="39" type="curve" smooth="yes"/>
      <point x="701" y="39"/>
      <point x="626" y="62"/>
      <point x="599" y="120" type="curve"/>
      <point x="540" y="61"/>
      <point x="468" y="39"/>
      <point x="408" y="39" type="curve" smooth="yes"/>
      <point x="280" y="39"/>
      <point x="223" y="106"/>
      <point x="223" y="216" type="curve" smooth="yes"/>
      <point x="223" y="331"/>
      <point x="298" y="465"/>
      <point x="468" y="465" type="curve" smooth="yes"/>
      <point x="543" y="465"/>
      <point x="592" y="437"/>
      <point x="641" y="396" type="curve"/>
      <point x="641" y="421"/>
      <point x="638" y="441"/>
      <point x="631" y="455" type="curve"/>
      <point x="678" y="455"/>
      <point x="743" y="453"/>
      <point x="808" y="453" type="curve" smooth="yes"/>
      <point x="840" y="453"/>
      <point x="872" y="453"/>
      <point x="902" y="455" type="curve"/>
      <point x="871" y="435"/>
      <point x="860" y="411"/>
      <point x="855" y="381" type="curve" smooth="yes"/>
      <point x="825" y="189" type="line" smooth="yes"/>
      <point x="821" y="164"/>
      <point x="817" y="131"/>
      <point x="862" y="131" type="curve" smooth="yes"/>
      <point x="947" y="131"/>
      <point x="1013" y="221"/>
      <point x="1013" y="342" type="curve" smooth="yes"/>
      <point x="1013" y="563"/>
      <point x="806" y="630"/>
      <point x="584" y="630" type="curve" smooth="yes"/>
      <point x="325" y="630"/>
      <point x="92" y="479"/>
      <point x="92" y="220" type="curve" smooth="yes"/>
      <point x="92" y="20"/>
      <point x="258" y="-122"/>
      <point x="473" y="-122" type="curve" smooth="yes"/>
      <point x="524" y="-122"/>
      <point x="614" y="-114"/>
    </contour>
    <contour>
      <point x="444" y="221" type="curve" smooth="yes"/>
      <point x="444" y="173"/>
      <point x="461" y="140"/>
      <point x="516" y="140" type="curve" smooth="yes"/>
      <point x="579" y="140"/>
      <point x="593" y="175"/>
      <point x="598" y="200" type="curve" smooth="yes"/>
      <point x="616" y="279" type="line" smooth="yes"/>
      <point x="627" y="326"/>
      <point x="602" y="362"/>
      <point x="545" y="362" type="curve" smooth="yes"/>
      <point x="474" y="362"/>
      <point x="444" y="294"/>
    </contour>
  </outline>
</glyph>
<glyph name="A" format="2">
  <advance width="1134"/>
  <unicode hex="0041"/>
  <anchor x="567" y="0" name="bottom"/>
  <anchor x="1021" y="10" name="ogonek"/>
  <anchor x="567" y="700" name="top"/>
  <outline>
    <contour>
      <point x="25" y="0" type="curve"/>
      <point x="384" y="0" type="line"/>
      <point x="371" y="9"/>
      <point x="365" y="26"/>
      <point x="365" y="50" type="curve" smooth="yes"/>
      <point x="365" y="68"/>
      <point x="372" y="91"/>
      <point x="385" y="118" type="curve"/>
      <point x="730" y="151" type="line"/>
      <point x="748" y="118" type="line" smooth="yes"/>
      <point x="762" y="93"/>
      <point x="769" y="70"/>
      <point x="769" y="50" type="curve" smooth="yes"/>
      <point x="769" y="26"/>
      <point x="763" y="9"/>
      <point x="750" y="0" type="curve"/>
      <point x="1109" y="0" type="line"/>
      <point x="1066" y="35"/>
      <point x="1022" y="98"/>
      <point x="975" y="187" type="curve" smooth="yes"/>
      <point x="700" y="700" type="line"/>
      <point x="381" y="700" type="line"/>
      <point x="394" y="689"/>
      <point x="400" y="673"/>
      <point x="400" y="652" type="curve" smooth="yes"/>
      <point x="400" y="643"/>
      <point x="393" y="624"/>
      <point x="380" y="597" type="curve" smooth="yes"/>
      <point x="159" y="187" type="line" smooth="yes"/>
      <point x="112" y="98"/>
      <point x="68" y="35"/>
    </contour>
    <contour>
      <point x="460" y="255" type="line"/>
      <point x="566" y="455" type="line"/>
      <point x="664" y="274" type="line"/>
    </contour>
  </outline>
</glyph>
<glyph name="B" format="2">
  <advance width="949"/>
  <unicode hex="0042"/>
  <anchor x="475" y="0" name="bottom"/>
  <anchor x="237" y="175" name="center"/>
  <anchor x="475" y="700" name="top"/>
  <outline>
    <contour>
      <point x="25" y="0" type="curve"/>
      <point x="623" y="0" type="line" smooth="yes"/>
      <point x="772" y="0"/>
      <point x="923" y="50"/>
      <point x="923" y="199" type="curve" smooth="yes"/>
      <point x="923" y="310"/>
      <point x="839" y="353"/>
      <point x="715" y="370" type="curve"/>
      <point x="800" y="383"/>
      <point x="888" y="432"/>
      <point x="888" y="535" type="curve" smooth="yes"/>
      <point x="888" y="660"/>
      <point x="762" y="700"/>
      <point x="635" y="700" type="curve" smooth="yes"/>
      <point x="25" y="700" type="line"/>
      <point x="57" y="680"/>
      <point x="75" y="643"/>
      <point x="75" y="606" type="curve" smooth="yes"/>
      <point x="75" y="90" type="line" smooth="yes"/>
      <point x="75" y="54"/>
      <point x="56" y="19"/>
    </contour>
    <contour>
      <point x="521" y="128" type="curve" smooth="yes"/>
      <point x="356" y="128" type="line"/>
      <point x="356" y="299" type="line"/>
      <point x="526" y="299" type="line" smooth="yes"/>
      <point x="611" y="299"/>
      <point x="641" y="264"/>
      <point x="641" y="215" type="curve" smooth="yes"/>
      <point x="641" y="147"/>
      <point x="589" y="128"/>
    </contour>
    <contour>
      <point x="524" y="401" type="curve" smooth="yes"/>
      <point x="356" y="401" type="line"/>
      <point x="356" y="553" type="line"/>
      <point x="464" y="553" type="line" smooth="yes"/>
      <point x="547" y="553"/>
      <point x="618" y="552"/>
      <point x="618" y="479" type="curve" smooth="yes"/>
      <point x="618" y="424"/>
      <point x="579" y="401"/>
    </contour>
  </outline>
</glyph>
<glyph name="C" format="2">
  <advance width="914"/>
  <unicode hex="0043"/>
  <anchor x="457" y="0" name="bottom"/>
  <anchor x="495" y="700" name="top"/>
  <outline>
    <contour>
      <point x="544" y="-24" type="curve" smooth="yes"/>
      <point x="682" y="-24"/>
      <point x="793" y="-9"/>
      <point x="889" y="42" type="curve"/>
      <point x="889" y="259" type="line"/>
      <point x="812" y="196"/>
      <point x="714" y="164"/>
      <point x="612" y="164" type="curve" smooth="yes"/>
      <point x="409" y="164"/>
      <point x="347" y="256"/>
      <point x="347" y="362" type="curve" smooth="yes"/>
      <point x="347" y="491"/>
      <point x="456" y="537"/>
      <point x="583" y="537" type="curve" smooth="yes"/>
      <point x="679" y="537"/>
      <point x="777" y="512"/>
      <point x="877" y="440" type="curve"/>
      <point x="877" y="666" type="line"/>
      <point x="783" y="701"/>
      <point x="678" y="719"/>
      <point x="561" y="719" type="curve" smooth="yes"/>
      <point x="135" y="719"/>
      <point x="24" y="519"/>
      <point x="24" y="337" type="curve" smooth="yes"/>
      <point x="24" y="66"/>
      <point x="268" y="-24"/>
    </contour>
  </outline>
</glyph>
<glyph name="D" format="2">
  <advance width="980"/>
  <unicode hex="0044"/>
  <anchor x="490" y="0" name="bottom"/>
  <anchor x="245" y="350" name="center"/>
  <anchor x="490" y="700" name="top"/>
  <outline>
    <contour>
      <point x="25" y="0" type="curve"/>
      <point x="414" y="0" type="line" smooth="yes"/>
      <point x="702" y="0"/>
      <point x="955" y="75"/>
      <point x="955" y="359" type="curve" smooth="yes"/>
      <point x="955" y="618"/>
      <point x="765" y="700"/>
      <point x="478" y="700" type="curve" smooth="yes"/>
      <point x="25" y="700" type="line"/>
      <point x="56" y="681"/>
      <point x="75" y="642"/>
      <point x="75" y="605" type="curve" smooth="yes"/>
      <point x="75" y="90" type="line" smooth="yes"/>
      <point x="75" y="54"/>
      <point x="56" y="19"/>
    </contour>
    <contour>
      <point x="489" y="141" type="curve" smooth="yes"/>
      <point x="358" y="141" type="line"/>
      <point x="358" y="552" type="line"/>
      <point x="451" y="552" type="line" smooth="yes"/>
      <point x="582" y="552"/>
      <point x="666" y="520"/>
      <point x="666" y="357" type="curve" smooth="yes"/>
      <point x="666" y="224"/>
      <point x="618" y="144"/>
    </contour>
  </outline>
</glyph>
<glyph name="E" format="2">
  <advance width="839"/>
  <unicode hex="0045"/>
  <anchor x="420" y="0" name="bottom"/>
  <anchor x="755" y="10" name="ogonek"/>
  <anchor x="420" y="700" name="top"/>
  <anchor x="20" y="700" name="topleft"/>
  <outline>
    <contour>
      <point x="25" y="0" type="curve"/>
      <point x="814" y="0" type="line"/>
      <point x="814" y="230" type="line"/>
      <point x="791" y="177"/>
      <point x="742" y="167"/>
      <point x="681" y="167" type="curve" smooth="yes"/>
      <point x="358" y="167" type="line"/>
      <point x="358" y="282" type="line"/>
      <point x="722" y="282" type="line"/>
      <point x="722" y="431" type="line"/>
      <point x="358" y="431" type="line"/>
      <point x="358" y="532" type="line"/>
      <point x="707" y="532" type="line" smooth="yes"/>
      <point x="748" y="532"/>
      <point x="780" y="518"/>
      <point x="802" y="490" type="curve"/>
      <point x="802" y="700" type="line"/>
      <point x="25" y="700" type="line"/>
      <point x="57" y="680"/>
      <point x="75" y="642"/>
      <point x="75" y="605" type="curve" smooth="yes"/>
      <point x="75" y="91" type="line" smooth="yes"/>
      <point x="75" y="51"/>
      <point x="58" y="21"/>
    </contour>
  </outline>
</glyph>
<glyph name="F" format="2">
  <advance width="793"/>
  <unicode hex="0046"/>
  <anchor x="397" y="0" name="bottom"/>
  <anchor x="397" y="700" name="top"/>
  <outline>
    <contour>
      <point x="25" y="2" type="curve"/>
      <point x="409" y="2" type="line"/>
      <point x="376" y="23"/>
      <point x="359" y="51"/>
      <point x="359" y="91" type="curve" smooth="yes"/>
      <point x="359" y="259" type="line"/>
      <point x="689" y="259" type="line"/>
      <point x="689" y="408" type="line"/>
      <point x="359" y="408" type="line"/>
      <point x="359" y="532" type="line"/>
      <point x="674" y="532" type="line" smooth="yes"/>
      <point x="718" y="532"/>
      <point x="749" y="516"/>
      <point x="768" y="489" type="curve"/>
      <point x="768" y="700" type="line"/>
      <point x="25" y="700" type="line"/>
      <point x="58" y="681"/>
      <point x="76" y="646"/>
      <point x="76" y="606" type="curve" smooth="yes"/>
      <point x="76" y="95" type="line" smooth="yes"/>
      <point x="76" y="58"/>
      <point x="57" y="21"/>
    </contour>
  </outline>
</glyph>
<glyph name="G" format="2">
  <advance width="979"/>
  <unicode hex="0047"/>
  <anchor x="490" y="0" name="bottom"/>
  <anchor x="500" y="700" name="top"/>
  <outline>
    <contour>
      <point x="531" y="-23" type="curve" smooth="yes"/>
      <point x="638" y="-23"/>
      <point x="723" y="-7"/>
      <point x="858" y="22" type="curve" smooth="yes"/>
      <point x="893" y="29"/>
      <point x="923" y="33"/>
      <point x="954" y="33" type="curve"/>
      <point x="935" y="52"/>
      <point x="931" y="75"/>
      <point x="931" y="102" type="curve" smooth="yes"/>
      <point x="931" y="262" type="line" smooth="yes"/>
      <point x="931" y="307"/>
      <point x="935" y="327"/>
      <point x="954" y="349" type="curve"/>
      <point x="644" y="349" type="line"/>
      <point x="668" y="334"/>
      <point x="682" y="307"/>
      <point x="682" y="266" type="curve" smooth="yes"/>
      <point x="682" y="149" type="line"/>
      <point x="658" y="144"/>
      <point x="628" y="142"/>
      <point x="596" y="142" type="curve" smooth="yes"/>
      <point x="459" y="142"/>
      <point x="348" y="226"/>
      <point x="348" y="355" type="curve" smooth="yes"/>
      <point x="348" y="469"/>
      <point x="420" y="538"/>
      <point x="569" y="538" type="curve" smooth="yes"/>
      <point x="687" y="538"/>
      <point x="780" y="507"/>
      <point x="877" y="440" type="curve"/>
      <point x="877" y="665" type="line"/>
      <point x="784" y="704"/>
      <point x="644" y="718"/>
      <point x="545" y="718" type="curve" smooth="yes"/>
      <point x="262" y="718"/>
      <point x="25" y="613"/>
      <point x="25" y="329" type="curve" smooth="yes"/>
      <point x="25" y="52"/>
      <point x="270" y="-23"/>
    </contour>
  </outline>
</glyph>
<glyph name="H" format="2">
  <advance width="1029"/>
  <unicode hex="0048"/>
  <anchor x="515" y="0" name="bottom"/>
  <anchor x="515" y="525" name="center"/>
  <anchor x="515" y="700" name="top"/>
  <anchor x="20" y="700" name="topleft"/>
  <outline>
    <contour>
      <point x="25" y="0" type="curve"/>
      <point x="384" y="0" type="line"/>
      <point x="369" y="15"/>
      <point x="360" y="43"/>
      <point x="360" y="85" type="curve" smooth="yes"/>
      <point x="360" y="295" type="line"/>
      <point x="671" y="295" type="line"/>
      <point x="671" y="85" type="line" smooth="yes"/>
      <point x="671" y="44"/>
      <point x="662" y="15"/>
      <point x="648" y="0" type="curve"/>
      <point x="1004" y="0" type="line"/>
      <point x="972" y="19"/>
      <point x="954" y="56"/>
      <point x="954" y="96" type="curve" smooth="yes"/>
      <point x="954" y="607" type="line" smooth="yes"/>
      <point x="954" y="644"/>
      <point x="972" y="681"/>
      <point x="1004" y="700" type="curve"/>
      <point x="648" y="700" type="line"/>
      <point x="662" y="685"/>
      <point x="671" y="657"/>
      <point x="671" y="617" type="curve" smooth="yes"/>
      <point x="671" y="438" type="line"/>
      <point x="360" y="438" type="line"/>
      <point x="360" y="617" type="line" smooth="yes"/>
      <point x="360" y="657"/>
      <point x="369" y="685"/>
      <point x="383" y="700" type="curve"/>
      <point x="27" y="700" type="line"/>
      <point x="59" y="681"/>
      <point x="77" y="643"/>
      <point x="77" y="606" type="curve" smooth="yes"/>
      <point x="77" y="96" type="line" smooth="yes"/>
      <point x="77" y="56"/>
      <point x="58" y="16"/>
    </contour>
  </outline>
</glyph>
<glyph name="I" format="2">
  <advance width="433"/>
  <unicode hex="0049"/>
  <anchor x="217" y="0" name="bottom"/>
  <anchor x="314" y="0" name="ogonek"/>
  <anchor x="217" y="700" name="top"/>
  <anchor x="20" y="700" name="topleft"/>
  <outline>
    <contour>
      <point x="25" y="0" type="curve"/>
      <point x="408" y="0" type="line"/>
      <point x="376" y="19"/>
      <point x="358" y="56"/>
      <point x="358" y="96" type="curve" smooth="yes"/>
      <point x="358" y="606" type="line" smooth="yes"/>
      <point x="358" y="643"/>
      <point x="376" y="681"/>
      <point x="408" y="700" type="curve"/>
      <point x="25" y="700" type="line"/>
      <point x="57" y="681"/>
      <point x="75" y="644"/>
      <point x="75" y="605" type="curve" smooth="yes"/>
      <point x="75" y="91" type="line" smooth="yes"/>
      <point x="75" y="51"/>
      <point x="58" y="21"/>
    </contour>
  </outline>
</glyph>
<glyph name="J" format="2">
  <advance width="602"/>
  <unicode hex="004A"/>
  <anchor x="301" y="0" name="bottom"/>
  <anchor x="386" y="700" name="top"/>
  <outline>
    <contour>
      <point x="236" y="-25" type="curve" smooth="yes"/>
      <point x="417" y="-25"/>
      <point x="526" y="52"/>
      <point x="526" y="233" type="curve" smooth="yes"/>
      <point x="526" y="602" type="line" smooth="yes"/>
      <point x="526" y="657"/>
      <point x="554" y="687"/>
      <point x="577" y="700" type="curve"/>
      <point x="193" y="700" type="line"/>
      <point x="225" y="681"/>
      <point x="243" y="643"/>
      <point x="243" y="606" type="curve" smooth="yes"/>
      <point x="243" y="254" type="line" smooth="yes"/>
      <point x="243" y="187"/>
      <point x="211" y="152"/>
      <point x="144" y="152" type="curve" smooth="yes"/>
      <point x="100" y="152"/>
      <point x="62" y="165"/>
      <point x="25" y="200" type="curve"/>
      <point x="25" y="10" type="line"/>
      <point x="73" y="-12"/>
      <point x="175" y="-25"/>
    </contour>
  </outline>
</glyph>
<glyph name="K" format="2">
  <advance width="1036"/>
  <unicode hex="004B"/>
  <anchor x="518" y="0" name="bottom"/>
  <anchor x="518" y="700" name="top"/>
  <outline>
    <contour>
      <point x="848" y="-11" type="curve" smooth="yes"/>
      <point x="915" y="-11"/>
      <point x="969" y="2"/>
      <point x="1011" y="29" type="curve"/>
      <point x="935" y="39"/>
      <point x="836" y="153"/>
      <point x="773" y="227" type="curve" smooth="yes"/>
      <point x="605" y="419" type="line"/>
      <point x="871" y="647" type="line" smooth="yes"/>
      <point x="897" y="670"/>
      <point x="918" y="689"/>
      <point x="936" y="700" type="curve"/>
      <point x="574" y="700" type="line"/>
      <point x="608" y="665"/>
      <point x="557" y="611"/>
      <point x="513" y="573" type="curve" smooth="yes"/>
      <point x="331" y="417" type="line"/>
      <point x="331" y="486" type="line" smooth="yes"/>
      <point x="331" y="603"/>
      <point x="349" y="675"/>
      <point x="385" y="700" type="curve"/>
      <point x="25" y="700" type="line"/>
      <point x="61" y="673"/>
      <point x="79" y="602"/>
      <point x="79" y="486" type="curve" smooth="yes"/>
      <point x="79" y="214" type="line" smooth="yes"/>
      <point x="79" y="98"/>
      <point x="61" y="27"/>
      <point x="25" y="0" type="curve"/>
      <point x="385" y="0" type="line"/>
      <point x="354" y="23"/>
      <point x="336" y="84"/>
      <point x="331" y="183" type="curve"/>
      <point x="425" y="263" type="line"/>
      <point x="556" y="114" type="line" smooth="yes"/>
      <point x="637" y="19"/>
      <point x="713" y="-11"/>
    </contour>
  </outline>
</glyph>
<glyph name="L" format="2">
  <advance width="817"/>
  <unicode hex="004C"/>
  <anchor x="409" y="0" name="bottom"/>
  <anchor x="409" y="350" name="center"/>
  <anchor x="255" y="700" name="top"/>
  <anchor x="501" y="700" name="topright"/>
  <outline>
    <contour>
      <point x="25" y="-1" type="curve"/>
      <point x="792" y="-1" type="line"/>
      <point x="792" y="255" type="line"/>
      <point x="757" y="204"/>
      <point x="697" y="178"/>
      <point x="636" y="178" type="curve" smooth="yes"/>
      <point x="358" y="178" type="line"/>
      <point x="358" y="605" type="line" smooth="yes"/>
      <point x="358" y="648"/>
      <point x="375" y="680"/>
      <point x="409" y="700" type="curve"/>
      <point x="25" y="700" type="line"/>
      <point x="57" y="681"/>
      <point x="75" y="643"/>
      <point x="75" y="606" type="curve" smooth="yes"/>
      <point x="75" y="95" type="line" smooth="yes"/>
      <point x="75" y="56"/>
      <point x="58" y="18"/>
    </contour>
  </outline>
</glyph>
<glyph name="M" format="2">
  <advance width="1291"/>
  <unicode hex="004D"/>
  <anchor x="646" y="0" name="bottom"/>
  <anchor x="646" y="700" name="top"/>
  <outline>
    <contour>
      <point x="25" y="0" type="curve"/>
      <point x="339" y="0" type="line"/>
      <point x="314" y="13"/>
      <point x="299" y="42"/>
      <point x="299" y="85" type="curve" smooth="yes"/>
      <point x="299" y="472" type="line"/>
      <point x="494" y="0" type="line"/>
      <point x="737" y="0" type="line"/>
      <point x="933" y="479" type="line"/>
      <point x="933" y="85" type="line" smooth="yes"/>
      <point x="933" y="41"/>
      <point x="919" y="13"/>
      <point x="894" y="0" type="curve"/>
      <point x="1265" y="0" type="line"/>
      <point x="1232" y="20"/>
      <point x="1216" y="50"/>
      <point x="1216" y="90" type="curve" smooth="yes"/>
      <point x="1216" y="606" type="line" smooth="yes"/>
      <point x="1216" y="643"/>
      <point x="1234" y="681"/>
      <point x="1266" y="700" type="curve"/>
      <point x="822" y="700" type="line"/>
      <point x="650" y="276" type="line"/>
      <point x="477" y="700" type="line"/>
      <point x="25" y="700" type="line"/>
      <point x="57" y="681"/>
      <point x="75" y="643"/>
      <point x="75" y="606" type="curve" smooth="yes"/>
      <point x="75" y="90" type="line" smooth="yes"/>
      <point x="75" y="51"/>
      <point x="58" y="21"/>
    </contour>
  </outline>
</glyph>
<glyph name="N" format="2">
  <advance width="1009"/>
  <unicode hex="004E"/>
  <anchor x="505" y="0" name="bottom"/>
  <anchor x="533" y="700" name="top"/>
  <outline>
    <contour>
      <point x="25" y="0" type="curve"/>
      <point x="328" y="0" type="line"/>
      <point x="293" y="24"/>
      <point x="289" y="47"/>
      <point x="289" y="90" type="curve" smooth="yes"/>
      <point x="289" y="411" type="line"/>
      <point x="615" y="0" type="line"/>
      <point x="984" y="0" type="line"/>
      <point x="950" y="20"/>
      <point x="933" y="50"/>
      <point x="933" y="90" type="curve" smooth="yes"/>
      <point x="933" y="606" type="line" smooth="yes"/>
      <point x="933" y="643"/>
      <point x="952" y="681"/>
      <point x="984" y="700" type="curve"/>
      <point x="681" y="700" type="line"/>
      <point x="707" y="684"/>
      <point x="720" y="655"/>
      <point x="720" y="612" type="curve" smooth="yes"/>
      <point x="720" y="280" type="line"/>
      <point x="389" y="700" type="line"/>
      <point x="25" y="700" type="line"/>
      <point x="57" y="681"/>
      <point x="75" y="643"/>
      <point x="75" y="606" type="curve" smooth="yes"/>
      <point x="75" y="90" type="line" smooth="yes"/>
      <point x="75" y="51"/>
      <point x="58" y="21"/>
    </contour>
  </outline>
</glyph>
<glyph name="O" format="2">
  <advance width="1015"/>
  <unicode hex="004F"/>
  <anchor x="508" y="0" name="bottom"/>
  <anchor x="508" y="350" name="center"/>
  <anchor x="914" y="10" name="ogonek"/>
  <anchor x="508" y="700" name="top"/>
  <anchor x="20" y="700" name="topleft"/>
  <anchor x="995" y="700" name="topright"/>
  <outline>
    <contour>
      <point x="532" y="-24" type="curve" smooth="yes"/>
      <point x="791" y="-24"/>
      <point x="990" y="78"/>
      <point x="990" y="344" type="curve" smooth="yes"/>
      <point x="990" y="622"/>
      <point x="782" y="716"/>
      <point x="511" y="716" type="curve" smooth="yes"/>
      <point x="219" y="716"/>
      <point x="25" y="630"/>
      <point x="25" y="338" type="curve" smooth="yes"/>
      <point x="25" y="40"/>
      <point x="236" y="-24"/>
    </contour>
    <contour>
      <point x="507" y="128" type="curve" smooth="yes"/>
      <point x="385" y="128"/>
      <point x="346" y="194"/>
      <point x="346" y="341" type="curve" smooth="yes"/>
      <point x="346" y="457"/>
      <point x="371" y="566"/>
      <point x="509" y="566" type="curve" smooth="yes"/>
      <point x="629" y="566"/>
      <point x="668" y="484"/>
      <point x="668" y="349" type="curve" smooth="yes"/>
      <point x="668" y="227"/>
      <point x="649" y="128"/>
    </contour>
    <contour>
      <point x="505" y="221" type="line"/>
      <point x="595" y="337" type="line"/>
      <point x="505" y="454" type="line"/>
      <point x="417" y="338" type="line"/>
    </contour>
  </outline>
</glyph>
<glyph name="P" format="2">
  <advance width="931"/>
  <unicode hex="0050"/>
  <anchor x="466" y="0" name="bottom"/>
  <anchor x="466" y="700" name="top"/>
  <outline>
    <contour>
      <point x="25" y="0" type="curve"/>
      <point x="409" y="0" type="line"/>
      <point x="377" y="19"/>
      <point x="358" y="54"/>
      <point x="358" y="90" type="curve" smooth="yes"/>
      <point x="358" y="215" type="line"/>
      <point x="615" y="215" type="line" smooth="yes"/>
      <point x="786" y="215"/>
      <point x="906" y="319"/>
      <point x="906" y="471" type="curve" smooth="yes"/>
      <point x="906" y="639"/>
      <point x="777" y="698"/>
      <point x="611" y="698" type="curve" smooth="yes"/>
      <point x="25" y="698" type="line"/>
      <point x="57" y="679"/>
      <point x="76" y="644"/>
      <point x="76" y="605" type="curve" smooth="yes"/>
      <point x="76" y="96" type="line" smooth="yes"/>
      <point x="76" y="56"/>
      <point x="56" y="19"/>
    </contour>
    <contour>
      <point x="505" y="358" type="curve" smooth="yes"/>
      <point x="358" y="358" type="line"/>
      <point x="358" y="552" type="line"/>
      <point x="500" y="552" type="line" smooth="yes"/>
      <point x="567" y="552"/>
      <point x="619" y="531"/>
      <point x="619" y="459" type="curve" smooth="yes"/>
      <point x="619" y="410"/>
      <point x="593" y="358"/>
    </contour>
  </outline>
</glyph>
<glyph name="Q" format="2">
  <advance width="1016"/>
  <unicode hex="0051"/>
  <anchor x="508" y="0" name="bottom"/>
  <anchor x="508" y="700" name="top"/>
  <outline>
    <contour>
      <point x="475" y="-24" type="curve"/>
      <point x="508" y="-175" type="line"/>
      <point x="781" y="-175" type="line"/>
      <point x="673" y="-10" type="line"/>
      <point x="876" y="26"/>
      <point x="990" y="131"/>
      <point x="990" y="337" type="curve" smooth="yes"/>
      <point x="990" y="621"/>
      <point x="787" y="717"/>
      <point x="505" y="717" type="curve" smooth="yes"/>
      <point x="222" y="717"/>
      <point x="25" y="622"/>
      <point x="25" y="347" type="curve" smooth="yes"/>
      <point x="25" y="66"/>
      <point x="196" y="-16"/>
    </contour>
    <contour>
      <point x="668" y="343" type="curve" smooth="yes"/>
      <point x="668" y="209"/>
      <point x="638" y="128"/>
      <point x="505" y="128" type="curve" smooth="yes"/>
      <point x="371" y="128"/>
      <point x="346" y="218"/>
      <point x="346" y="336" type="curve" smooth="yes"/>
      <point x="346" y="475"/>
      <point x="379" y="567"/>
      <point x="508" y="567" type="curve" smooth="yes"/>
      <point x="633" y="567"/>
      <point x="668" y="468"/>
    </contour>
  </outline>
</glyph>
<glyph name="R" format="2">
  <advance width="994"/>
  <unicode hex="0052"/>
  <anchor x="497" y="0" name="bottom"/>
  <anchor x="497" y="700" name="top"/>
  <outline>
    <contour>
      <point x="26" y="0" type="curve"/>
      <point x="409" y="0" type="line"/>
      <point x="376" y="20"/>
      <point x="359" y="50"/>
      <point x="359" y="91" type="curve" smooth="yes"/>
      <point x="359" y="222" type="line"/>
      <point x="492" y="222" type="line" smooth="yes"/>
      <point x="596" y="222"/>
      <point x="636" y="170"/>
      <point x="636" y="64" type="curve" smooth="yes"/>
      <point x="636" y="33"/>
      <point x="624" y="12"/>
      <point x="601" y="0" type="curve"/>
      <point x="969" y="0" type="line"/>
      <point x="936" y="16"/>
      <point x="917" y="42"/>
      <point x="917" y="79" type="curve" smooth="yes"/>
      <point x="917" y="159"/>
      <point x="903" y="217"/>
      <point x="878" y="254" type="curve" smooth="yes"/>
      <point x="855" y="289"/>
      <point x="818" y="315"/>
      <point x="766" y="330" type="curve"/>
      <point x="843" y="367"/>
      <point x="889" y="425"/>
      <point x="889" y="507" type="curve" smooth="yes"/>
      <point x="889" y="648"/>
      <point x="755" y="700"/>
      <point x="616" y="700" type="curve" smooth="yes"/>
      <point x="25" y="700" type="line"/>
      <point x="59" y="681"/>
      <point x="76" y="650"/>
      <point x="76" y="607" type="curve" smooth="yes"/>
      <point x="76" y="91" type="line" smooth="yes"/>
      <point x="76" y="50"/>
      <point x="59" y="20"/>
    </contour>
    <contour>
      <point x="530" y="380" type="curve" smooth="yes"/>
      <point x="359" y="380" type="line"/>
      <point x="359" y="552" type="line"/>
      <point x="535" y="552" type="line" smooth="yes"/>
      <point x="598" y="552"/>
      <point x="636" y="523"/>
      <point x="636" y="470" type="curve" smooth="yes"/>
      <point x="636" y="408"/>
      <point x="587" y="380"/>
    </contour>
  </outline>
</glyph>
<glyph name="S" format="2">
  <advance width="732"/>
  <unicode hex="0053"/>
  <anchor x="366" y="0" name="bottom"/>
  <anchor x="366" y="700" name="top"/>
  <outline>
    <contour>
      <point x="348" y="-24" type="curve" smooth="yes"/>
      <point x="552" y="-24"/>
      <point x="712" y="53"/>
      <point x="712" y="229" type="curve" smooth="yes"/>
      <point x="712" y="370"/>
      <point x="566" y="413"/>
      <point x="475" y="438" type="curve" smooth="yes"/>
      <point x="363" y="469"/>
      <point x="310" y="484"/>
      <point x="310" y="525" type="curve" smooth="yes"/>
      <point x="310" y="565"/>
      <point x="356" y="567"/>
      <point x="396" y="567" type="curve" smooth="yes"/>
      <point x="497" y="567"/>
      <point x="588" y="534"/>
      <point x="668" y="471" type="curve"/>
      <point x="668" y="674" type="line"/>
      <point x="596" y="703"/>
      <point x="507" y="716"/>
      <point x="402" y="716" type="curve" smooth="yes"/>
      <point x="213" y="716"/>
      <point x="21" y="658"/>
      <point x="21" y="467" type="curve" smooth="yes"/>
      <point x="21" y="360"/>
      <point x="89" y="306"/>
      <point x="191" y="268" type="curve" smooth="yes"/>
      <point x="387" y="203" type="line" smooth="yes"/>
      <point x="411" y="195"/>
      <point x="443" y="183"/>
      <point x="443" y="161" type="curve" smooth="yes"/>
      <point x="443" y="131"/>
      <point x="405" y="121"/>
      <point x="367" y="121" type="curve" smooth="yes"/>
      <point x="255" y="121"/>
      <point x="144" y="156"/>
      <point x="36" y="227" type="curve"/>
      <point x="36" y="23" type="line"/>
      <point x="127" y="-8"/>
      <point x="231" y="-24"/>
    </contour>
  </outline>
</glyph>
<glyph name="T" format="2">
  <advance width="890"/>
  <unicode hex="0054"/>
  <anchor x="445" y="0" name="bottom"/>
  <anchor x="445" y="350" name="center"/>
  <anchor x="445" y="700" name="top"/>
  <outline>
    <contour>
      <point x="254" y="0" type="curve"/>
      <point x="637" y="0" type="line"/>
      <point x="602" y="20"/>
      <point x="587" y="61"/>
      <point x="587" y="102" type="curve" smooth="yes"/>
      <point x="587" y="511" type="line"/>
      <point x="774" y="511" type="line" smooth="yes"/>
      <point x="814" y="511"/>
      <point x="844" y="494"/>
      <point x="865" y="461" type="curve"/>
      <point x="865" y="700" type="line"/>
      <point x="25" y="700" type="line"/>
      <point x="25" y="461" type="line"/>
      <point x="46" y="494"/>
      <point x="76" y="511"/>
      <point x="115" y="511" type="curve" smooth="yes"/>
      <point x="304" y="511" type="line"/>
      <point x="304" y="123" type="line" smooth="yes"/>
      <point x="304" y="62"/>
      <point x="298" y="26"/>
    </contour>
  </outline>
</glyph>
<glyph name="U" format="2">
  <advance width="984"/>
  <unicode hex="0055"/>
  <anchor x="492" y="0" name="bottom"/>
  <anchor x="707" y="0" name="ogonek"/>
  <anchor x="492" y="700" name="top"/>
  <anchor x="964" y="700" name="topright"/>
  <outline>
    <contour>
      <point x="74" y="612" type="curve" smooth="yes"/>
      <point x="74" y="261" type="line"/>
      <point x="74" y="113"/>
      <point x="184" y="-26"/>
      <point x="482" y="-26" type="curve" smooth="yes"/>
      <point x="741" y="-26"/>
      <point x="909" y="40"/>
      <point x="909" y="266" type="curve" smooth="yes"/>
      <point x="909" y="607" type="line" smooth="yes"/>
      <point x="909" y="648"/>
      <point x="926" y="679"/>
      <point x="959" y="700" type="curve"/>
      <point x="619" y="700" type="line"/>
      <point x="635" y="684"/>
      <point x="644" y="655"/>
      <point x="644" y="612" type="curve" smooth="yes"/>
      <point x="644" y="298" type="line" smooth="yes"/>
      <point x="644" y="197"/>
      <point x="608" y="149"/>
      <point x="506" y="149" type="curve" smooth="yes"/>
      <point x="417" y="149"/>
      <point x="358" y="189"/>
      <point x="358" y="283" type="curve" smooth="yes"/>
      <point x="358" y="612" type="line" smooth="yes"/>
      <point x="358" y="654"/>
      <point x="365" y="683"/>
      <point x="380" y="700" type="curve"/>
      <point x="25" y="700" type="line"/>
      <point x="57" y="680"/>
      <point x="74" y="651"/>
    </contour>
  </outline>
</glyph>
<glyph name="V" format="2">
  <advance width="1130"/>
  <unicode hex="0056"/>
  <anchor x="565" y="0" name="bottom"/>
  <anchor x="565" y="700" name="top"/>
  <outline>
    <contour>
      <point x="379" y="1" type="curve"/>
      <point x="751" y="1" type="line"/>
      <point x="752" y="28"/>
      <point x="763" y="58"/>
      <point x="778" y="92" type="curve" smooth="yes"/>
      <point x="993" y="577" type="line" smooth="yes"/>
      <point x="1024" y="647"/>
      <point x="1038" y="664"/>
      <point x="1105" y="700" type="curve"/>
      <point x="703" y="700" type="line"/>
      <point x="742" y="677"/>
      <point x="740" y="645"/>
      <point x="723" y="603" type="curve" smooth="yes"/>
      <point x="581" y="244" type="line"/>
      <point x="441" y="603" type="line" smooth="yes"/>
      <point x="424" y="647"/>
      <point x="421" y="674"/>
      <point x="461" y="700" type="curve"/>
      <point x="25" y="700" type="line"/>
      <point x="72" y="678"/>
      <point x="106" y="647"/>
      <point x="124" y="606" type="curve" smooth="yes"/>
      <point x="357" y="80" type="line" smooth="yes"/>
      <point x="369" y="53"/>
      <point x="377" y="28"/>
    </contour>
  </outline>
</glyph>
<glyph name="W" format="2">
  <advance width="1672"/>
  <unicode hex="0057"/>
  <anchor x="836" y="0" name="bottom"/>
  <anchor x="836" y="700" name="top"/>
  <outline>
    <contour>
      <point x="356" y="0" type="curve"/>
      <point x="714" y="0" type="line"/>
      <point x="714" y="32"/>
      <point x="716" y="55"/>
      <point x="727" y="87" type="curve" smooth="yes"/>
      <point x="836" y="411" type="line"/>
      <point x="943" y="95" type="line" smooth="yes"/>
      <point x="954" y="61"/>
      <point x="959" y="31"/>
      <point x="959" y="0" type="curve"/>
      <point x="1316" y="0" type="line"/>
      <point x="1316" y="29"/>
      <point x="1336" y="78"/>
      <point x="1343" y="91" type="curve" smooth="yes"/>
      <point x="1538" y="582" type="line" smooth="yes"/>
      <point x="1566" y="645"/>
      <point x="1579" y="668"/>
      <point x="1647" y="700" type="curve"/>
      <point x="1232" y="700" type="line"/>
      <point x="1263" y="689"/>
      <point x="1269" y="648"/>
      <point x="1259" y="619" type="curve" smooth="yes"/>
      <point x="1136" y="260" type="line"/>
      <point x="977" y="700" type="line"/>
      <point x="717" y="700" type="line"/>
      <point x="559" y="259" type="line"/>
      <point x="435" y="623" type="line" smooth="yes"/>
      <point x="424" y="654"/>
      <point x="433" y="687"/>
      <point x="462" y="700" type="curve"/>
      <point x="25" y="700" type="line"/>
      <point x="74" y="677"/>
      <point x="107" y="648"/>
      <point x="122" y="611" type="curve" smooth="yes"/>
      <point x="337" y="69" type="line" smooth="yes"/>
      <point x="347" y="43"/>
      <point x="353" y="21"/>
    </contour>
  </outline>
</glyph>
<glyph name="X" format="2">
  <advance width="1086"/>
  <unicode hex="0058"/>
  <anchor x="543" y="0" name="bottom"/>
  <anchor x="543" y="700" name="top"/>
  <outline>
    <contour>
      <point x="580" y="0" type="curve"/>
      <point x="1061" y="0" type="line"/>
      <point x="1000" y="27"/>
      <point x="952" y="83"/>
      <point x="906" y="136" type="curve" smooth="yes"/>
      <point x="699" y="376" type="line"/>
      <point x="909" y="620" type="line" smooth="yes"/>
      <point x="947" y="664"/>
      <point x="991" y="689"/>
      <point x="1033" y="700" type="curve"/>
      <point x="660" y="700" type="line"/>
      <point x="691" y="683"/>
      <point x="687" y="639"/>
      <point x="669" y="617" type="curve" smooth="yes"/>
      <point x="579" y="516" type="line"/>
      <point x="495" y="614" type="line" smooth="yes"/>
      <point x="477" y="636"/>
      <point x="471" y="679"/>
      <point x="501" y="700" type="curve"/>
      <point x="25" y="700" type="line"/>
      <point x="68" y="679"/>
      <point x="101" y="649"/>
      <point x="132" y="613" type="curve" smooth="yes"/>
      <point x="366" y="340" type="line"/>
      <point x="143" y="82" type="line" smooth="yes"/>
      <point x="115" y="49"/>
      <point x="77" y="23"/>
      <point x="28" y="0" type="curve"/>
      <point x="396" y="0" type="line"/>
      <point x="367" y="19"/>
      <point x="367" y="60"/>
      <point x="390" y="85" type="curve" smooth="yes"/>
      <point x="491" y="196" type="line"/>
      <point x="573" y="101" type="line" smooth="yes"/>
      <point x="599" y="71"/>
      <point x="610" y="28"/>
    </contour>
  </outline>
</glyph>
<glyph name="Y" format="2">
  <advance width="1095"/>
  <unicode hex="0059"/>
  <anchor x="548" y="0" name="bottom"/>
  <anchor x="548" y="700" name="top"/>
  <anchor x="20" y="700" name="topleft"/>
  <outline>
    <contour>
      <point x="352" y="0" type="curve"/>
      <point x="742" y="0" type="line"/>
      <point x="703" y="26"/>
      <point x="683" y="98"/>
      <point x="683" y="215" type="curve" smooth="yes"/>
      <point x="683" y="237" type="line"/>
      <point x="985" y="628" type="line"/>
      <point x="1001" y="653"/>
      <point x="1042" y="689"/>
      <point x="1070" y="700" type="curve"/>
      <point x="691" y="700" type="line"/>
      <point x="713" y="678"/>
      <point x="701" y="654"/>
      <point x="680" y="628" type="curve" smooth="yes"/>
      <point x="547" y="457" type="line"/>
      <point x="415" y="628" type="line" smooth="yes"/>
      <point x="392" y="658"/>
      <point x="379" y="678"/>
      <point x="405" y="700" type="curve"/>
      <point x="25" y="700" type="line"/>
      <point x="50" y="692"/>
      <point x="79" y="668"/>
      <point x="110" y="628" type="curve" smooth="yes"/>
      <point x="411" y="237" type="line"/>
      <point x="411" y="215" type="line" smooth="yes"/>
      <point x="411" y="102"/>
      <point x="399" y="29"/>
    </contour>
  </outline>
</glyph>
<glyph name="Z" format="2">
  <advance width="849"/>
  <unicode hex="005A"/>
  <anchor x="425" y="0" name="bottom"/>
  <anchor x="425" y="350" name="center"/>
  <anchor x="425" y="700" name="top"/>
  <outline>
    <contour>
      <point x="25" y="0" type="line"/>
      <point x="824" y="0" type="line"/>
      <point x="824" y="245" type="line"/>
      <point x="795" y="200"/>
      <point x="765" y="168"/>
      <point x="696" y="168" type="curve" smooth="yes"/>
      <point x="407" y="168" type="line"/>
      <point x="798" y="554" type="line"/>
      <point x="798" y="700" type="line"/>
      <point x="48" y="700" type="line"/>
      <point x="48" y="444" type="line"/>
      <point x="77" y="489"/>
      <point x="125" y="520"/>
      <point x="176" y="520" type="curve" smooth="yes"/>
      <point x="415" y="520" type="line"/>
      <point x="25" y="134" type="line"/>
    </contour>
  </outline>
</glyph>
<glyph name="bracketleft" format="2">
  <advance width="295"/>
  <unicode hex="005B"/>
  <outline>
    <contour>
      <point x="25" y="-85" type="line"/>
      <point x="270" y="-85" type="line"/>
      <point x="270" y="12" type="line"/>
      <point x="135" y="12" type="line"/>
      <point x="135" y="645" type="line"/>
      <point x="270" y="645" type="line"/>
      <point x="270" y="740" type="line"/>
      <point x="25" y="740" type="line"/>
    </contour>
  </outline>
</glyph>
<glyph name="bracketright" format="2">
  <advance width="295"/>
  <unicode hex="005D"/>
  <outline>
    <contour>
      <point x="270" y="-85" type="line"/>
      <point x="270" y="740" type="line"/>
      <point x="25" y="740" type="line"/>
      <point x="25" y="645" type="line"/>
      <point x="160" y="645" type="line"/>
      <point x="160" y="12" type="line"/>
      <point x="25" y="12" type="line"/>
      <point x="25" y="-85" type="line"/>
    </contour>
  </outline>
</glyph>
<glyph name="asciicircum" format="2">
  <advance width="652"/>
  <unicode hex="005E"/>
  <outline>
    <contour>
      <point x="136" y="542" type="curve" smooth="yes"/>
      <point x="25" y="322" type="line"/>
      <point x="185" y="322" type="line"/>
      <point x="260" y="469" type="line"/>
      <point x="323" y="592" type="line"/>
      <point x="394" y="454" type="line"/>
      <point x="461" y="322" type="line"/>
      <point x="627" y="322" type="line"/>
      <point x="392" y="779" type="line"/>
      <point x="254" y="779" type="line"/>
      <point x="227" y="722"/>
      <point x="187" y="643"/>
    </contour>
  </outline>
</glyph>
<glyph name="underscore" format="2">
  <advance width="629"/>
  <unicode hex="005F"/>
  <outline>
    <contour>
      <point x="25" y="-180" type="line"/>
      <point x="604" y="-180" type="line"/>
      <point x="604" y="-53" type="line"/>
      <point x="25" y="-53" type="line"/>
    </contour>
  </outline>
</glyph>
<glyph name="braceleft" format="2">
  <advance width="399"/>
  <unicode hex="007B"/>
  <outline>
    <contour>
      <point x="315" y="-85" type="curve" smooth="yes"/>
      <point x="376" y="-85" type="line"/>
      <point x="376" y="6" type="line"/>
      <point x="323" y="6" type="line" smooth="yes"/>
      <point x="271" y="6"/>
      <point x="248" y="19"/>
      <point x="248" y="67" type="curve" smooth="yes"/>
      <point x="248" y="240" type="line" smooth="yes"/>
      <point x="248" y="293"/>
      <point x="220" y="318"/>
      <point x="152" y="329" type="curve"/>
      <point x="220" y="339"/>
      <point x="248" y="364"/>
      <point x="248" y="417" type="curve" smooth="yes"/>
      <point x="248" y="590" type="line" smooth="yes"/>
      <point x="248" y="638"/>
      <point x="271" y="651"/>
      <point x="323" y="651" type="curve" smooth="yes"/>
      <point x="376" y="651" type="line"/>
      <point x="376" y="742" type="line"/>
      <point x="315" y="742" type="line" smooth="yes"/>
      <point x="177" y="742"/>
      <point x="137" y="693"/>
      <point x="137" y="615" type="curve" smooth="yes"/>
      <point x="137" y="440" type="line" smooth="yes"/>
      <point x="137" y="398"/>
      <point x="108" y="379"/>
      <point x="58" y="385" type="curve" smooth="yes"/>
      <point x="25" y="389" type="line"/>
      <point x="25" y="268" type="line"/>
      <point x="58" y="272" type="line" smooth="yes"/>
      <point x="108" y="278"/>
      <point x="137" y="259"/>
      <point x="137" y="217" type="curve" smooth="yes"/>
      <point x="137" y="42" type="line" smooth="yes"/>
      <point x="137" y="-36"/>
      <point x="177" y="-85"/>
    </contour>
  </outline>
</glyph>
<glyph name="bar" format="2">
  <advance width="186"/>
  <unicode hex="007C"/>
  <outline>
    <contour>
      <point x="25" y="-100" type="line"/>
      <point x="161" y="-100" type="line"/>
      <point x="161" y="838" type="line"/>
      <point x="25" y="838" type="line"/>
    </contour>
  </outline>
</glyph>
<glyph name="braceright" format="2">
  <advance width="399"/>
  <unicode hex="007D"/>
  <outline>
    <contour>
      <point x="86" y="-85" type="line"/>
      <point x="224" y="-85"/>
      <point x="264" y="-36"/>
      <point x="264" y="42" type="curve" smooth="yes"/>
      <point x="264" y="217" type="line" smooth="yes"/>
      <point x="264" y="259"/>
      <point x="293" y="278"/>
      <point x="343" y="272" type="curve" smooth="yes"/>
      <point x="376" y="268" type="line"/>
      <point x="376" y="389" type="line"/>
      <point x="343" y="385" type="line" smooth="yes"/>
      <point x="293" y="379"/>
      <point x="264" y="398"/>
      <point x="264" y="440" type="curve" smooth="yes"/>
      <point x="264" y="615" type="line" smooth="yes"/>
      <point x="264" y="693"/>
      <point x="224" y="742"/>
      <point x="86" y="742" type="curve" smooth="yes"/>
      <point x="25" y="742" type="line"/>
      <point x="25" y="651" type="line"/>
      <point x="78" y="651" type="line" smooth="yes"/>
      <point x="130" y="651"/>
      <point x="153" y="638"/>
      <point x="153" y="590" type="curve" smooth="yes"/>
      <point x="153" y="417" type="line" smooth="yes"/>
      <point x="153" y="364"/>
      <point x="181" y="339"/>
      <point x="249" y="329" type="curve"/>
      <point x="181" y="318"/>
      <point x="153" y="293"/>
      <point x="153" y="240" type="curve" smooth="yes"/>
      <point x="153" y="67" type="line" smooth="yes"/>
      <point x="153" y="19"/>
      <point x="130" y="6"/>
      <point x="78" y="6" type="curve" smooth="yes"/>
      <point x="25" y="6" type="line"/>
      <point x="25" y="-85" type="line"/>
    </contour>
  </outline>
</glyph>
<glyph name="asciitilde" format="2">
  <advance width="672"/>
  <unicode hex="007E"/>
  <outline>
    <contour>
      <point x="25" y="268" type="curve"/>
      <point x="43" y="305"/>
      <point x="68" y="331"/>
      <point x="99" y="344" type="curve"/>
      <point x="106" y="349"/>
      <point x="117" y="351"/>
      <point x="128" y="351" type="curve" smooth="yes"/>
      <point x="140" y="351"/>
      <point x="153" y="349"/>
      <point x="162" y="349" type="curve"/>
      <point x="199" y="344"/>
      <point x="253" y="333"/>
      <point x="322" y="317" type="curve" smooth="yes"/>
      <point x="391" y="300"/>
      <point x="443" y="289"/>
      <point x="476" y="284" type="curve" smooth="yes"/>
      <point x="520" y="279"/>
      <point x="565" y="297"/>
      <point x="592" y="333" type="curve" smooth="yes"/>
      <point x="619" y="372"/>
      <point x="638" y="434"/>
      <point x="647" y="518" type="curve"/>
      <point x="627" y="486" type="line" smooth="yes"/>
      <point x="618" y="473"/>
      <point x="597" y="449"/>
      <point x="577" y="438" type="curve" smooth="yes"/>
      <point x="565" y="432"/>
      <point x="551" y="430"/>
      <point x="537" y="430" type="curve" smooth="yes"/>
      <point x="528" y="430"/>
      <point x="518" y="431"/>
      <point x="508" y="433" type="curve" smooth="yes"/>
      <point x="481" y="437"/>
      <point x="432" y="447"/>
      <point x="361" y="463" type="curve" smooth="yes"/>
      <point x="290" y="478"/>
      <point x="234" y="488"/>
      <point x="194" y="492" type="curve" smooth="yes"/>
      <point x="149" y="497"/>
      <point x="112" y="483"/>
      <point x="83" y="450" type="curve" smooth="yes"/>
      <point x="44" y="406"/>
      <point x="25" y="345"/>
    </contour>
  </outline>
</glyph>
<glyph name="exclamdown" format="2">
  <advance width="297"/>
  <unicode hex="00A1"/>
  <outline>
    <contour>
      <point x="84" y="240" type="line"/>
      <point x="36" y="-250" type="line"/>
      <point x="259" y="-250" type="line"/>
      <point x="211" y="240" type="line"/>
    </contour>
    <component base="period" yScale="-1" yOffset="472"/>
  </outline>
</glyph>
<glyph name="sterling" format="2">
  <advance width="627"/>
  <unicode hex="00A3"/>
  <outline>
    <contour>
      <point x="41" y="0" type="line"/>
      <point x="602" y="0" type="line"/>
      <point x="602" y="161" type="line"/>
      <point x="300" y="161" type="line"/>
      <point x="316" y="195"/>
      <point x="322" y="227"/>
      <point x="326" y="262" type="curve"/>
      <point x="483" y="262" type="line"/>
      <point x="483" y="424" type="line"/>
      <point x="315" y="424" type="line"/>
      <point x="309" y="456"/>
      <point x="306" y="484"/>
      <point x="306" y="509" type="curve" smooth="yes"/>
      <point x="306" y="547"/>
      <point x="334" y="560"/>
      <point x="370" y="560" type="curve" smooth="yes"/>
      <point x="432" y="560"/>
      <point x="461" y="546"/>
      <point x="486" y="529" type="curve"/>
      <point x="598" y="638" type="line"/>
      <point x="520" y="705"/>
      <point x="441" y="722"/>
      <point x="355" y="722" type="curve" smooth="yes"/>
      <point x="199" y="722"/>
      <point x="104" y="645"/>
      <point x="104" y="530" type="curve" smooth="yes"/>
      <point x="104" y="493"/>
      <point x="106" y="457"/>
      <point x="108" y="424" type="curve"/>
      <point x="25" y="424" type="line"/>
      <point x="25" y="262" type="line"/>
      <point x="128" y="262" type="line"/>
      <point x="129" y="248"/>
      <point x="130" y="236"/>
      <point x="130" y="225" type="curve" smooth="yes"/>
      <point x="130" y="179"/>
      <point x="113" y="161"/>
      <point x="52" y="161" type="curve" smooth="yes"/>
      <point x="41" y="161" type="line"/>
    </contour>
  </outline>
</glyph>
<glyph name="currency" format="2">
  <advance width="560"/>
  <unicode hex="00A4"/>
  <outline>
    <contour>
      <point x="348" y="175" type="curve"/>
      <point x="433" y="90" type="line"/>
      <point x="529" y="186" type="line"/>
      <point x="449" y="266" type="line"/>
      <point x="450" y="267"/>
      <point x="450" y="267"/>
      <point x="450" y="268" type="curve"/>
      <point x="460" y="290"/>
      <point x="465" y="314"/>
      <point x="465" y="341" type="curve" smooth="yes"/>
      <point x="465" y="369"/>
      <point x="460" y="395"/>
      <point x="451" y="418" type="curve"/>
      <point x="535" y="502" type="line"/>
      <point x="439" y="598" type="line"/>
      <point x="350" y="509" type="line"/>
      <point x="329" y="515"/>
      <point x="306" y="519"/>
      <point x="281" y="519" type="curve" smooth="yes"/>
      <point x="254" y="519"/>
      <point x="229" y="514"/>
      <point x="208" y="507" type="curve"/>
      <point x="121" y="594" type="line"/>
      <point x="25" y="498" type="line"/>
      <point x="110" y="413" type="line"/>
      <point x="110" y="412" type="line"/>
      <point x="101" y="391"/>
      <point x="97" y="367"/>
      <point x="97" y="341" type="curve" smooth="yes"/>
      <point x="97" y="314"/>
      <point x="101" y="289"/>
      <point x="109" y="268" type="curve"/>
      <point x="31" y="190" type="line"/>
      <point x="127" y="94" type="line"/>
      <point x="209" y="175" type="line"/>
      <point x="230" y="168"/>
      <point x="254" y="164"/>
      <point x="281" y="163" type="curve" smooth="yes"/>
      <point x="305" y="164"/>
      <point x="327" y="168"/>
    </contour>
    <contour>
      <point x="280" y="259" type="curve" smooth="yes"/>
      <point x="212" y="259"/>
      <point x="190" y="307"/>
      <point x="190" y="336" type="curve" smooth="yes"/>
      <point x="190" y="391"/>
      <point x="225" y="421"/>
      <point x="280" y="421" type="curve" smooth="yes"/>
      <point x="340" y="421"/>
      <point x="371" y="389"/>
      <point x="371" y="339" type="curve" smooth="yes"/>
      <point x="371" y="294"/>
      <point x="333" y="259"/>
    </contour>
  </outline>
</glyph>
<glyph name="yen" format="2">
  <advance width="1095"/>
  <unicode hex="00A5"/>
  <anchor x="548" y="0" name="bottom"/>
  <anchor x="548" y="700" name="top"/>
  <anchor x="20" y="700" name="topleft"/>
  <outline>
    <contour>
      <point x="352" y="0" type="curve"/>
      <point x="742" y="0" type="line"/>
      <point x="703" y="26"/>
      <point x="683" y="168"/>
      <point x="683" y="285" type="curve" smooth="yes"/>
      <point x="683" y="307" type="line"/>
      <point x="985" y="628" type="line"/>
      <point x="1001" y="653"/>
      <point x="1042" y="689"/>
      <point x="1070" y="700" type="curve"/>
      <point x="691" y="700" type="line"/>
      <point x="713" y="678"/>
      <point x="704" y="651"/>
      <point x="680" y="628" type="curve" smooth="yes"/>
      <point x="547" y="500" type="line"/>
      <point x="415" y="628" type="line" smooth="yes"/>
      <point x="388" y="654"/>
      <point x="379" y="678"/>
      <point x="405" y="700" type="curve"/>
      <point x="25" y="700" type="line"/>
      <point x="50" y="692"/>
      <point x="75" y="665"/>
      <point x="110" y="628" type="curve" smooth="yes"/>
      <point x="411" y="307" type="line"/>
      <point x="411" y="285" type="line" smooth="yes"/>
      <point x="411" y="172"/>
      <point x="399" y="29"/>
    </contour>
    <contour>
      <point x="199" y="374" type="line"/>
      <point x="894" y="374" type="line"/>
      <point x="894" y="464" type="line"/>
      <point x="199" y="464" type="line"/>
    </contour>
    <contour>
      <point x="199" y="234" type="line"/>
      <point x="894" y="234" type="line"/>
      <point x="894" y="324" type="line"/>
      <point x="199" y="324" type="line"/>
    </contour>
  </outline>
</glyph>
<glyph name="brokenbar" format="2">
  <advance width="186"/>
  <unicode hex="00A6"/>
  <outline>
    <contour>
      <point x="25" y="413" type="line"/>
      <point x="161" y="413" type="line"/>
      <point x="161" y="837" type="line"/>
      <point x="25" y="837" type="line"/>
    </contour>
    <contour>
      <point x="25" y="-101" type="line"/>
      <point x="161" y="-101" type="line"/>
      <point x="161" y="323" type="line"/>
      <point x="25" y="323" type="line"/>
    </contour>
  </outline>
</glyph>
<glyph name="section" format="2">
  <advance width="762"/>
  <unicode hex="00A7"/>
  <anchor x="391" y="118" name="bottom"/>
  <anchor x="391" y="704" name="top"/>
  <outline>
    <contour>
      <point x="310" y="253" type="curve"/>
      <point x="441" y="130" type="line"/>
      <point x="611" y="143"/>
      <point x="737" y="208"/>
      <point x="737" y="339" type="curve" smooth="yes"/>
      <point x="737" y="456"/>
      <point x="591" y="492"/>
      <point x="500" y="513" type="curve" smooth="yes"/>
      <point x="388" y="539"/>
      <point x="335" y="552"/>
      <point x="335" y="586" type="curve" smooth="yes"/>
      <point x="335" y="620"/>
      <point x="381" y="621"/>
      <point x="421" y="622" type="curve" smooth="yes"/>
      <point x="522" y="622"/>
      <point x="613" y="594"/>
      <point x="693" y="541" type="curve"/>
      <point x="693" y="711" type="line"/>
      <point x="621" y="736"/>
      <point x="532" y="746"/>
      <point x="427" y="746" type="curve" smooth="yes"/>
      <point x="238" y="746"/>
      <point x="46" y="698"/>
      <point x="46" y="538" type="curve" smooth="yes"/>
      <point x="46" y="448"/>
      <point x="114" y="403"/>
      <point x="216" y="371" type="curve" smooth="yes"/>
      <point x="412" y="317" type="line" smooth="yes"/>
      <point x="436" y="310"/>
      <point x="468" y="301"/>
      <point x="468" y="282" type="curve" smooth="yes"/>
      <point x="468" y="257"/>
      <point x="430" y="248"/>
      <point x="392" y="248" type="curve" smooth="yes"/>
      <point x="365" y="248"/>
      <point x="337" y="250"/>
    </contour>
    <contour>
      <point x="463" y="329" type="curve"/>
      <point x="330" y="454" type="line"/>
      <point x="169" y="442"/>
      <point x="25" y="388"/>
      <point x="25" y="249" type="curve" smooth="yes"/>
      <point x="25" y="159"/>
      <point x="93" y="114"/>
      <point x="195" y="82" type="curve" smooth="yes"/>
      <point x="391" y="28" type="line" smooth="yes"/>
      <point x="415" y="21"/>
      <point x="447" y="12"/>
      <point x="447" y="-7" type="curve" smooth="yes"/>
      <point x="447" y="-32"/>
      <point x="409" y="-41"/>
      <point x="371" y="-41" type="curve" smooth="yes"/>
      <point x="259" y="-41"/>
      <point x="148" y="-11"/>
      <point x="40" y="48" type="curve"/>
      <point x="40" y="-123" type="line"/>
      <point x="131" y="-149"/>
      <point x="235" y="-162"/>
      <point x="352" y="-162" type="curve" smooth="yes"/>
      <point x="556" y="-162"/>
      <point x="716" y="-98"/>
      <point x="716" y="50" type="curve" smooth="yes"/>
      <point x="716" y="167"/>
      <point x="570" y="203"/>
      <point x="479" y="224" type="curve" smooth="yes"/>
      <point x="367" y="250"/>
      <point x="314" y="263"/>
      <point x="314" y="297" type="curve" smooth="yes"/>
      <point x="314" y="331"/>
      <point x="360" y="332"/>
      <point x="400" y="333" type="curve" smooth="yes"/>
      <point x="422" y="333"/>
      <point x="443" y="332"/>
    </contour>
  </outline>
</glyph>
<glyph name="ordfeminine" format="2">
  <advance width="252"/>
  <unicode hex="00AA"/>
  <outline>
    <contour>
      <point x="118" y="519" type="curve" smooth="yes"/>
      <point x="129" y="519"/>
      <point x="139" y="521"/>
      <point x="148" y="525" type="curve"/>
      <point x="227" y="525" type="line"/>
      <point x="227" y="715" type="line"/>
      <point x="150" y="715" type="line"/>
      <point x="141" y="719"/>
      <point x="131" y="721"/>
      <point x="118" y="721" type="curve" smooth="yes"/>
      <point x="68" y="721"/>
      <point x="25" y="683"/>
      <point x="25" y="620" type="curve" smooth="yes"/>
      <point x="25" y="557"/>
      <point x="68" y="519"/>
    </contour>
    <contour>
      <point x="126" y="601" type="curve" smooth="yes"/>
      <point x="115" y="601"/>
      <point x="107" y="604"/>
      <point x="107" y="620" type="curve" smooth="yes"/>
      <point x="107" y="636"/>
      <point x="115" y="640"/>
      <point x="126" y="640" type="curve" smooth="yes"/>
      <point x="133" y="640"/>
      <point x="140" y="639"/>
      <point x="146" y="638" type="curve"/>
      <point x="146" y="603" type="line"/>
      <point x="139" y="602"/>
      <point x="133" y="601"/>
    </contour>
  </outline>
</glyph>
<glyph name="logicalnot" format="2">
  <advance width="443"/>
  <unicode hex="00AC"/>
  <outline>
    <contour>
      <point x="268" y="229" type="line"/>
      <point x="418" y="229" type="line"/>
      <point x="418" y="480" type="line"/>
      <point x="25" y="480" type="line"/>
      <point x="25" y="330" type="line"/>
      <point x="268" y="330" type="line"/>
    </contour>
  </outline>
</glyph>
<glyph name="uni00AD" format="2">
  <advance width="390"/>
  <unicode hex="00AD"/>
  <outline>
    <contour>
      <point x="25" y="179" type="line"/>
      <point x="365" y="179" type="line"/>
      <point x="365" y="306" type="line"/>
      <point x="25" y="306" type="line"/>
    </contour>
  </outline>
</glyph>
<glyph name="registered" format="2">
  <advance width="750"/>
  <unicode hex="00AE"/>
  <outline>
    <contour>
      <point x="375" y="0" type="curve" smooth="yes"/>
      <point x="580" y="0"/>
      <point x="725" y="174"/>
      <point x="725" y="355" type="curve" smooth="yes"/>
      <point x="725" y="535"/>
      <point x="580" y="709"/>
      <point x="375" y="709" type="curve" smooth="yes"/>
      <point x="169" y="709"/>
      <point x="25" y="536"/>
      <point x="25" y="355" type="curve" smooth="yes"/>
      <point x="25" y="171"/>
      <point x="170" y="0"/>
    </contour>
    <contour>
      <point x="375" y="122" type="curve" smooth="yes"/>
      <point x="262" y="122"/>
      <point x="165" y="222"/>
      <point x="165" y="355" type="curve" smooth="yes"/>
      <point x="165" y="488"/>
      <point x="263" y="587"/>
      <point x="375" y="587" type="curve" smooth="yes"/>
      <point x="501" y="587"/>
      <point x="585" y="484"/>
      <point x="585" y="355" type="curve" smooth="yes"/>
      <point x="585" y="299"/>
      <point x="568" y="251"/>
      <point x="540" y="211" type="curve"/>
      <point x="481" y="305" type="line"/>
      <point x="513" y="326"/>
      <point x="534" y="361"/>
      <point x="534" y="401" type="curve" smooth="yes"/>
      <point x="534" y="467"/>
      <point x="484" y="527"/>
      <point x="378" y="527" type="curve" smooth="yes"/>
      <point x="251" y="527" type="line"/>
      <point x="251" y="199" type="line"/>
      <point x="361" y="199" type="line"/>
      <point x="361" y="276" type="line"/>
      <point x="378" y="276" type="line"/>
      <point x="386" y="276" type="line"/>
      <point x="436" y="199" type="line"/>
      <point x="531" y="199" type="line"/>
      <point x="492" y="151"/>
      <point x="438" y="122"/>
    </contour>
    <contour>
      <point x="373" y="374" type="curve" smooth="yes"/>
      <point x="361" y="374" type="line"/>
      <point x="361" y="428" type="line"/>
      <point x="378" y="428" type="line" smooth="yes"/>
      <point x="409" y="428"/>
      <point x="423" y="422"/>
      <point x="423" y="403" type="curve" smooth="yes"/>
      <point x="423" y="383"/>
      <point x="409" y="374"/>
    </contour>
  </outline>
</glyph>
<glyph name="degree" format="2">
  <advance width="277"/>
  <unicode hex="00B0"/>
  <outline>
    <contour>
      <point x="139" y="521" type="curve" smooth="yes"/>
      <point x="200" y="521"/>
      <point x="252" y="562"/>
      <point x="252" y="621" type="curve" smooth="yes"/>
      <point x="252" y="680"/>
      <point x="211" y="721"/>
      <point x="139" y="721" type="curve" smooth="yes"/>
      <point x="66" y="721"/>
      <point x="25" y="679"/>
      <point x="25" y="621" type="curve" smooth="yes"/>
      <point x="25" y="560"/>
      <point x="72" y="521"/>
    </contour>
    <contour>
      <point x="139" y="589" type="curve" smooth="yes"/>
      <point x="114" y="589"/>
      <point x="100" y="604"/>
      <point x="100" y="620" type="curve" smooth="yes"/>
      <point x="100" y="639"/>
      <point x="114" y="652"/>
      <point x="139" y="652" type="curve" smooth="yes"/>
      <point x="163" y="652"/>
      <point x="177" y="640"/>
      <point x="177" y="620" type="curve" smooth="yes"/>
      <point x="177" y="604"/>
      <point x="163" y="589"/>
    </contour>
  </outline>
</glyph>
<glyph name="plusminus" format="2">
  <advance width="630"/>
  <unicode hex="00B1"/>
  <outline>
    <contour>
      <point x="270" y="145" type="line"/>
      <point x="361" y="145" type="line"/>
      <point x="361" y="388" type="line"/>
      <point x="605" y="388" type="line"/>
      <point x="605" y="479" type="line"/>
      <point x="361" y="479" type="line"/>
      <point x="361" y="723" type="line"/>
      <point x="270" y="723" type="line"/>
      <point x="270" y="479" type="line"/>
      <point x="25" y="479" type="line"/>
      <point x="25" y="388" type="line"/>
      <point x="270" y="388" type="line"/>
    </contour>
    <contour>
      <point x="25" y="26" type="line"/>
      <point x="605" y="26" type="line"/>
      <point x="605" y="117" type="line"/>
      <point x="25" y="117" type="line"/>
    </contour>
  </outline>
</glyph>
<glyph name="uni00B2" format="2">
  <advance width="332"/>
  <unicode hex="00B2"/>
  <outline>
    <contour>
      <point x="25" y="518" type="curve"/>
      <point x="25" y="442" type="line"/>
      <point x="307" y="442" type="line"/>
      <point x="307" y="543" type="line"/>
      <point x="300" y="528"/>
      <point x="283" y="518"/>
      <point x="267" y="518" type="curve" smooth="yes"/>
      <point x="170" y="518" type="line"/>
      <point x="222" y="542"/>
      <point x="294" y="586"/>
      <point x="294" y="645" type="curve" smooth="yes"/>
      <point x="294" y="708"/>
      <point x="229" y="730"/>
      <point x="162" y="730" type="curve" smooth="yes"/>
      <point x="122" y="730"/>
      <point x="63" y="723"/>
      <point x="27" y="702" type="curve"/>
      <point x="27" y="633" type="line"/>
      <point x="52" y="650"/>
      <point x="79" y="658"/>
      <point x="107" y="658" type="curve" smooth="yes"/>
      <point x="136" y="658"/>
      <point x="163" y="651"/>
      <point x="163" y="623" type="curve" smooth="yes"/>
      <point x="163" y="576"/>
      <point x="69" y="536"/>
    </contour>
  </outline>
</glyph>
<glyph name="uni00B3" format="2">
  <advance width="336"/>
  <unicode hex="00B3"/>
  <outline>
    <contour>
      <point x="138" y="439" type="curve" smooth="yes"/>
      <point x="220" y="439"/>
      <point x="311" y="462"/>
      <point x="311" y="528" type="curve" smooth="yes"/>
      <point x="311" y="576"/>
      <point x="267" y="590"/>
      <point x="219" y="592" type="curve"/>
      <point x="219" y="595" type="line"/>
      <point x="271" y="607"/>
      <point x="295" y="626"/>
      <point x="295" y="665" type="curve" smooth="yes"/>
      <point x="295" y="730"/>
      <point x="216" y="736"/>
      <point x="161" y="736" type="curve" smooth="yes"/>
      <point x="113" y="736"/>
      <point x="71" y="730"/>
      <point x="37" y="716" type="curve"/>
      <point x="37" y="642" type="line"/>
      <point x="70" y="661"/>
      <point x="107" y="667"/>
      <point x="139" y="667" type="curve" smooth="yes"/>
      <point x="165" y="667"/>
      <point x="184" y="661"/>
      <point x="184" y="642" type="curve" smooth="yes"/>
      <point x="184" y="622"/>
      <point x="159" y="614"/>
      <point x="139" y="614" type="curve" smooth="yes"/>
      <point x="83" y="614" type="line"/>
      <point x="83" y="560" type="line"/>
      <point x="142" y="560" type="line" smooth="yes"/>
      <point x="163" y="560"/>
      <point x="182" y="554"/>
      <point x="182" y="533" type="curve" smooth="yes"/>
      <point x="182" y="513"/>
      <point x="159" y="506"/>
      <point x="129" y="506" type="curve" smooth="yes"/>
      <point x="88" y="506"/>
      <point x="57" y="511"/>
      <point x="25" y="532" type="curve"/>
      <point x="25" y="456" type="line"/>
      <point x="54" y="445"/>
      <point x="91" y="439"/>
    </contour>
  </outline>
</glyph>
<glyph name="paragraph" format="2">
  <advance width="636"/>
  <unicode hex="00B6"/>
  <outline>
    <contour>
      <point x="277" y="353" type="curve"/>
      <point x="277" y="-100" type="line"/>
      <point x="394" y="-100" type="line"/>
      <point x="394" y="636" type="line"/>
      <point x="493" y="636" type="line"/>
      <point x="493" y="-100" type="line"/>
      <point x="611" y="-100" type="line"/>
      <point x="611" y="722" type="line"/>
      <point x="277" y="722" type="line" smooth="yes"/>
      <point x="109" y="722"/>
      <point x="25" y="649"/>
      <point x="25" y="538" type="curve" smooth="yes"/>
      <point x="25" y="420"/>
      <point x="119" y="353"/>
    </contour>
  </outline>
</glyph>
<glyph name="uni00B9" format="2">
  <advance width="191"/>
  <unicode hex="00B9"/>
  <guideline x="130" y="442" angle="0"/>
  <outline>
    <contour>
      <point x="14" y="442" type="curve"/>
      <point x="166" y="442" type="line"/>
      <point x="152" y="449"/>
      <point x="145" y="462"/>
      <point x="145" y="479" type="curve" smooth="yes"/>
      <point x="145" y="719" type="line"/>
      <point x="72" y="719" type="line" smooth="yes"/>
      <point x="70" y="719"/>
      <point x="67" y="719"/>
      <point x="66" y="718" type="curve"/>
      <point x="-31" y="674" type="line"/>
      <point x="-31" y="625" type="line"/>
      <point x="35" y="648" type="line"/>
      <point x="35" y="479" type="line" smooth="yes"/>
      <point x="35" y="462"/>
      <point x="28" y="449"/>
    </contour>
  </outline>
</glyph>
<glyph name="ordmasculine" format="2">
  <advance width="277"/>
  <unicode hex="00BA"/>
  <outline>
    <contour>
      <point x="139" y="289" type="curve" smooth="yes"/>
      <point x="199" y="289"/>
      <point x="252" y="326"/>
      <point x="252" y="389" type="curve" smooth="yes"/>
      <point x="252" y="448"/>
      <point x="211" y="488"/>
      <point x="139" y="488" type="curve" smooth="yes"/>
      <point x="65" y="488"/>
      <point x="25" y="445"/>
      <point x="25" y="389" type="curve" smooth="yes"/>
      <point x="25" y="326"/>
      <point x="72" y="289"/>
    </contour>
    <contour>
      <point x="139" y="357" type="curve" smooth="yes"/>
      <point x="114" y="357"/>
      <point x="100" y="372"/>
      <point x="100" y="388" type="curve" smooth="yes"/>
      <point x="100" y="407"/>
      <point x="114" y="420"/>
      <point x="139" y="420" type="curve" smooth="yes"/>
      <point x="163" y="420"/>
      <point x="177" y="407"/>
      <point x="177" y="388" type="curve" smooth="yes"/>
      <point x="177" y="372"/>
      <point x="163" y="357"/>
    </contour>
  </outline>
</glyph>
<glyph name="guillemotright" format="2">
  <advance width="844"/>
  <unicode hex="00BB"/>
  <outline>
    <contour>
      <point x="420" y="302" type="line"/>
      <point x="420" y="414" type="line"/>
      <point x="25" y="569" type="line"/>
      <point x="25" y="466" type="line"/>
      <point x="328" y="358" type="line"/>
      <point x="25" y="247" type="line"/>
      <point x="25" y="144" type="line"/>
    </contour>
    <contour>
      <point x="820" y="302" type="line"/>
      <point x="820" y="414" type="line"/>
      <point x="425" y="569" type="line"/>
      <point x="425" y="466" type="line"/>
      <point x="728" y="358" type="line"/>
      <point x="425" y="247" type="line"/>
      <point x="425" y="144" type="line"/>
    </contour>
  </outline>
</glyph>
<glyph name="onequarter" format="2">
  <advance width="603"/>
  <unicode hex="00BC"/>
  <outline>
    <contour>
      <point x="103" y="71" type="line"/>
      <point x="188" y="71" type="line"/>
      <point x="243" y="220"/>
      <point x="367" y="567"/>
      <point x="407" y="680" type="curve"/>
      <point x="323" y="680" type="line"/>
      <point x="103" y="71" type="line"/>
      <point x="188" y="71" type="line"/>
      <point x="243" y="220"/>
      <point x="367" y="567"/>
      <point x="407" y="680" type="curve"/>
      <point x="323" y="680" type="line"/>
      <point x="103" y="71" type="line"/>
      <point x="188" y="71" type="line"/>
      <point x="243" y="220"/>
      <point x="367" y="567"/>
      <point x="407" y="680" type="curve"/>
      <point x="323" y="680" type="line"/>
    </contour>
    <contour>
      <point x="57" y="439" type="curve"/>
      <point x="166" y="439" type="line"/>
      <point x="156" y="445"/>
      <point x="151" y="454"/>
      <point x="151" y="466" type="curve" smooth="yes"/>
      <point x="151" y="636" type="line"/>
      <point x="99" y="636" type="line" smooth="yes"/>
      <point x="97" y="636"/>
      <point x="95" y="636"/>
      <point x="94" y="635" type="curve"/>
      <point x="25" y="604" type="line"/>
      <point x="25" y="569" type="line"/>
      <point x="72" y="585" type="line"/>
      <point x="72" y="466" type="line" smooth="yes"/>
      <point x="72" y="454"/>
      <point x="67" y="445"/>
    </contour>
    <contour>
      <point x="431" y="110" type="curve"/>
      <point x="556" y="110" type="line"/>
      <point x="545" y="117"/>
      <point x="540" y="127"/>
      <point x="539" y="140" type="curve" smooth="yes"/>
      <point x="539" y="159" type="line"/>
      <point x="578" y="159" type="line"/>
      <point x="578" y="212" type="line"/>
      <point x="559" y="212" type="line"/>
      <point x="539" y="212" type="line"/>
      <point x="539" y="338" type="line"/>
      <point x="428" y="338" type="line"/>
      <point x="311" y="212" type="line"/>
      <point x="310" y="159" type="line"/>
      <point x="447" y="159" type="line"/>
      <point x="447" y="140" type="line" smooth="yes"/>
      <point x="447" y="127"/>
      <point x="442" y="117"/>
    </contour>
    <contour>
      <point x="392" y="212" type="line"/>
      <point x="447" y="270" type="line"/>
      <point x="447" y="212" type="line"/>
      <point x="420" y="212" type="line"/>
    </contour>
  </outline>
</glyph>
<glyph name="onehalf" format="2">
  <advance width="599"/>
  <unicode hex="00BD"/>
  <outline>
    <contour>
      <point x="105" y="71" type="line"/>
      <point x="190" y="71" type="line"/>
      <point x="305" y="389" type="line"/>
      <point x="409" y="680" type="line"/>
      <point x="325" y="680" type="line"/>
      <point x="105" y="71" type="line"/>
      <point x="190" y="71" type="line"/>
      <point x="305" y="389" type="line"/>
      <point x="409" y="680" type="line"/>
      <point x="325" y="680" type="line"/>
      <point x="105" y="71" type="line"/>
      <point x="190" y="71" type="line"/>
      <point x="305" y="389" type="line"/>
      <point x="409" y="680" type="line"/>
      <point x="325" y="680" type="line"/>
    </contour>
    <contour>
      <point x="57" y="439" type="curve"/>
      <point x="166" y="439" type="line"/>
      <point x="156" y="445"/>
      <point x="151" y="454"/>
      <point x="151" y="466" type="curve" smooth="yes"/>
      <point x="151" y="636" type="line"/>
      <point x="99" y="636" type="line" smooth="yes"/>
      <point x="97" y="636"/>
      <point x="95" y="636"/>
      <point x="94" y="635" type="curve"/>
      <point x="25" y="604" type="line"/>
      <point x="25" y="569" type="line"/>
      <point x="72" y="585" type="line"/>
      <point x="72" y="466" type="line" smooth="yes"/>
      <point x="72" y="454"/>
      <point x="67" y="445"/>
    </contour>
    <contour>
      <point x="346" y="172" type="curve"/>
      <point x="346" y="110" type="line"/>
      <point x="574" y="110" type="line"/>
      <point x="574" y="193" type="line"/>
      <point x="569" y="180"/>
      <point x="555" y="173"/>
      <point x="542" y="173" type="curve" smooth="yes"/>
      <point x="463" y="173" type="line"/>
      <point x="492" y="186"/>
      <point x="516" y="201"/>
      <point x="534" y="217" type="curve" smooth="yes"/>
      <point x="553" y="235"/>
      <point x="564" y="253"/>
      <point x="564" y="274" type="curve" smooth="yes"/>
      <point x="564" y="291"/>
      <point x="557" y="308"/>
      <point x="544" y="320" type="curve" smooth="yes"/>
      <point x="531" y="331"/>
      <point x="513" y="339"/>
      <point x="488" y="342" type="curve" smooth="yes"/>
      <point x="477" y="343"/>
      <point x="466" y="344"/>
      <point x="454" y="344" type="curve" smooth="yes"/>
      <point x="441" y="344"/>
      <point x="427" y="343"/>
      <point x="411" y="341" type="curve" smooth="yes"/>
      <point x="384" y="336"/>
      <point x="362" y="330"/>
      <point x="347" y="321" type="curve"/>
      <point x="347" y="266" type="line"/>
      <point x="367" y="280"/>
      <point x="389" y="286"/>
      <point x="412" y="286" type="curve" smooth="yes"/>
      <point x="418" y="286"/>
      <point x="423" y="286"/>
      <point x="429" y="285" type="curve" smooth="yes"/>
      <point x="441" y="283"/>
      <point x="449" y="278"/>
      <point x="453" y="271" type="curve" smooth="yes"/>
      <point x="456" y="266"/>
      <point x="457" y="262"/>
      <point x="457" y="257" type="curve" smooth="yes"/>
      <point x="457" y="250"/>
      <point x="455" y="244"/>
      <point x="450" y="237" type="curve" smooth="yes"/>
      <point x="443" y="226"/>
      <point x="432" y="216"/>
      <point x="416" y="206" type="curve" smooth="yes"/>
      <point x="401" y="197"/>
      <point x="377" y="185"/>
    </contour>
  </outline>
</glyph>
<glyph name="AE" format="2">
  <advance width="1570"/>
  <unicode hex="00C6"/>
  <anchor x="785" y="0" name="bottom"/>
  <anchor x="1102" y="700" name="top"/>
  <outline>
    <contour>
      <point x="25" y="2" type="curve"/>
      <point x="384" y="2" type="line"/>
      <point x="381" y="6"/>
      <point x="379" y="10"/>
      <point x="379" y="17" type="curve" smooth="yes"/>
      <point x="379" y="26"/>
      <point x="383" y="38"/>
      <point x="390" y="52" type="curve" smooth="yes"/>
      <point x="399" y="70"/>
      <point x="417" y="93"/>
      <point x="444" y="120" type="curve" smooth="yes"/>
      <point x="446" y="122" type="line"/>
      <point x="805" y="153" type="line"/>
      <point x="806" y="138" type="line"/>
      <point x="806" y="92" type="line"/>
      <point x="804" y="77"/>
      <point x="800" y="64"/>
      <point x="794" y="52" type="curve" smooth="yes"/>
      <point x="782" y="28"/>
      <point x="767" y="11"/>
      <point x="750" y="2" type="curve"/>
      <point x="1545" y="2" type="line"/>
      <point x="1545" y="231" type="line"/>
      <point x="1534" y="206"/>
      <point x="1513" y="188"/>
      <point x="1482" y="175" type="curve" smooth="yes"/>
      <point x="1471" y="171"/>
      <point x="1447" y="168"/>
      <point x="1412" y="168" type="curve" smooth="yes"/>
      <point x="1089" y="168" type="line"/>
      <point x="1089" y="283" type="line"/>
      <point x="1453" y="283" type="line"/>
      <point x="1453" y="432" type="line"/>
      <point x="1089" y="432" type="line"/>
      <point x="1089" y="533" type="line"/>
      <point x="1438" y="533" type="line" smooth="yes"/>
      <point x="1479" y="533"/>
      <point x="1511" y="519"/>
      <point x="1533" y="491" type="curve"/>
      <point x="1533" y="702" type="line"/>
      <point x="728" y="702" type="line"/>
      <point x="731" y="697"/>
      <point x="732" y="692"/>
      <point x="732" y="686" type="curve" smooth="yes"/>
      <point x="732" y="677"/>
      <point x="729" y="666"/>
      <point x="723" y="654" type="curve" smooth="yes"/>
      <point x="719" y="645"/>
      <point x="703" y="626"/>
      <point x="676" y="599" type="curve" smooth="yes"/>
      <point x="252" y="189" type="line" smooth="yes"/>
      <point x="161" y="100"/>
      <point x="85" y="37"/>
    </contour>
    <contour>
      <point x="587" y="257" type="line"/>
      <point x="792" y="457" type="line"/>
      <point x="800" y="276" type="line"/>
    </contour>
  </outline>
</glyph>
<glyph name="Eth" format="2">
  <advance width="1052"/>
  <unicode hex="00D0"/>
  <anchor x="526" y="0" name="bottom"/>
  <anchor x="526" y="700" name="top"/>
  <outline>
    <component base="D" xOffset="72"/>
    <contour>
      <point x="25" y="440" type="line"/>
      <point x="25" y="253" type="line"/>
      <point x="555" y="253" type="line"/>
      <point x="555" y="440" type="line"/>
    </contour>
  </outline>
</glyph>
<glyph name="multiply" format="2">
  <advance width="466"/>
  <unicode hex="00D7"/>
  <outline>
    <contour>
      <point x="100" y="126" type="line"/>
      <point x="233" y="260" type="line"/>
      <point x="367" y="126" type="line"/>
      <point x="441" y="200" type="line"/>
      <point x="308" y="334" type="line"/>
      <point x="441" y="468" type="line"/>
      <point x="367" y="542" type="line"/>
      <point x="233" y="408" type="line"/>
      <point x="100" y="542" type="line"/>
      <point x="25" y="468" type="line"/>
      <point x="159" y="334" type="line"/>
      <point x="25" y="200" type="line"/>
    </contour>
  </outline>
</glyph>
<glyph name="Oslash" format="2">
  <advance width="1040"/>
  <unicode hex="00D8"/>
  <anchor x="520" y="0" name="bottom"/>
  <anchor x="520" y="700" name="top"/>
  <outline>
    <contour>
      <point x="25" y="-132" type="line"/>
      <point x="281" y="-132" type="line"/>
      <point x="1015" y="826" type="line"/>
      <point x="763" y="826" type="line"/>
    </contour>
    <component base="o"/>
  </outline>
</glyph>
<glyph name="Thorn" format="2">
  <advance width="911"/>
  <unicode hex="00DE"/>
  <anchor x="295" y="0" name="bottom"/>
  <anchor x="295" y="700" name="top"/>
  <outline>
    <component base="I"/>
    <contour>
      <point x="485" y="263" type="curve" smooth="yes"/>
      <point x="175" y="263" type="line"/>
      <point x="175" y="120" type="line"/>
      <point x="595" y="120" type="line" smooth="yes"/>
      <point x="766" y="120"/>
      <point x="886" y="224"/>
      <point x="886" y="376" type="curve" smooth="yes"/>
      <point x="886" y="544"/>
      <point x="757" y="603"/>
      <point x="591" y="603" type="curve" smooth="yes"/>
      <point x="155" y="603" type="line"/>
      <point x="155" y="457" type="line"/>
      <point x="480" y="457" type="line" smooth="yes"/>
      <point x="547" y="457"/>
      <point x="599" y="436"/>
      <point x="599" y="364" type="curve" smooth="yes"/>
      <point x="599" y="315"/>
      <point x="573" y="263"/>
    </contour>
  </outline>
</glyph>
<glyph name="divide" format="2">
  <advance width="503"/>
  <unicode hex="00F7"/>
  <outline>
    <contour>
      <point x="25" y="285" type="line"/>
      <point x="478" y="285" type="line"/>
      <point x="478" y="390" type="line"/>
      <point x="25" y="390" type="line"/>
    </contour>
    <contour>
      <point x="251" y="94" type="curve" smooth="yes"/>
      <point x="302" y="94"/>
      <point x="327" y="119"/>
      <point x="327" y="170" type="curve" smooth="yes"/>
      <point x="327" y="221"/>
      <point x="302" y="246"/>
      <point x="251" y="246" type="curve" smooth="yes"/>
      <point x="200" y="246"/>
      <point x="175" y="221"/>
      <point x="175" y="170" type="curve" smooth="yes"/>
      <point x="175" y="119"/>
      <point x="200" y="94"/>
    </contour>
    <contour>
      <point x="251" y="428" type="curve" smooth="yes"/>
      <point x="302" y="428"/>
      <point x="327" y="454"/>
      <point x="327" y="505" type="curve" smooth="yes"/>
      <point x="327" y="555"/>
      <point x="302" y="580"/>
      <point x="251" y="580" type="curve" smooth="yes"/>
      <point x="200" y="580"/>
      <point x="175" y="555"/>
      <point x="175" y="505" type="curve" smooth="yes"/>
      <point x="175" y="454"/>
      <point x="200" y="428"/>
    </contour>
  </outline>
</glyph>
<glyph name="Hbar" format="2">
  <advance width="1095"/>
  <unicode hex="0126"/>
  <outline>
    <contour>
      <point x="0" y="482" type="line"/>
      <point x="1095" y="482" type="line"/>
      <point x="1095" y="648" type="line"/>
      <point x="0" y="648" type="line"/>
    </contour>
    <component base="H" xOffset="29"/>
  </outline>
</glyph>
<glyph name="Lslash" format="2">
  <advance width="817"/>
  <unicode hex="0141"/>
  <outline>
    <component base="L"/>
    <contour>
      <point x="27" y="111" type="line"/>
      <point x="409" y="377" type="line"/>
      <point x="409" y="597" type="line"/>
      <point x="27" y="331" type="line"/>
    </contour>
  </outline>
</glyph>
<glyph name="napostrophe" format="2">
  <advance width="1269"/>
  <unicode hex="0149"/>
  <outline>
    <contour>
      <point x="48" y="640" type="curve"/>
      <point x="-10" y="386" type="line"/>
      <point x="122" y="386" type="line"/>
      <point x="193" y="534" type="line" smooth="yes"/>
      <point x="228" y="606"/>
      <point x="254" y="661"/>
      <point x="271" y="700" type="curve"/>
      <point x="54" y="700" type="line"/>
      <point x="54" y="669"/>
      <point x="52" y="649"/>
    </contour>
    <component base="N" xOffset="259"/>
  </outline>
</glyph>
<glyph name="Eng" format="2">
  <advance width="1009"/>
  <unicode hex="014A"/>
  <anchor x="505" y="-250" name="bottom"/>
  <anchor x="505" y="700" name="top"/>
  <outline>
    <contour>
      <point x="645" y="-253" type="curve" smooth="yes"/>
      <point x="796" y="-253"/>
      <point x="895" y="-191"/>
      <point x="895" y="-40" type="curve" smooth="yes"/>
      <point x="895" y="0" type="line"/>
      <point x="933" y="0" type="line"/>
      <point x="933" y="606" type="line" smooth="yes"/>
      <point x="933" y="644"/>
      <point x="951" y="681"/>
      <point x="984" y="700" type="curve"/>
      <point x="681" y="700" type="line"/>
      <point x="707" y="684"/>
      <point x="720" y="655"/>
      <point x="720" y="612" type="curve" smooth="yes"/>
      <point x="720" y="280" type="line"/>
      <point x="389" y="700" type="line"/>
      <point x="25" y="700" type="line"/>
      <point x="56" y="682"/>
      <point x="75" y="644"/>
      <point x="75" y="606" type="curve" smooth="yes"/>
      <point x="75" y="90" type="line" smooth="yes"/>
      <point x="75" y="51"/>
      <point x="58" y="21"/>
      <point x="25" y="0" type="curve"/>
      <point x="328" y="0" type="line"/>
      <point x="297" y="21"/>
      <point x="289" y="50"/>
      <point x="289" y="90" type="curve" smooth="yes"/>
      <point x="289" y="411" type="line"/>
      <point x="615" y="0" type="line"/>
      <point x="649" y="0" type="line"/>
      <point x="648" y="-80"/>
      <point x="627" y="-107"/>
      <point x="562" y="-107" type="curve" smooth="yes"/>
      <point x="525" y="-107"/>
      <point x="491" y="-94"/>
      <point x="459" y="-67" type="curve"/>
      <point x="459" y="-224" type="line"/>
      <point x="488" y="-237"/>
      <point x="582" y="-253"/>
    </contour>
  </outline>
</glyph>
<glyph name="OE" format="2">
  <advance width="1469"/>
  <unicode hex="0152"/>
  <anchor x="735" y="0" name="bottom"/>
  <anchor x="735" y="700" name="top"/>
  <outline>
    <contour>
      <point x="532" y="-24" type="curve" smooth="yes"/>
      <point x="603" y="-24"/>
      <point x="667" y="-14"/>
      <point x="722" y="0" type="curve"/>
      <point x="1444" y="0" type="line"/>
      <point x="1444" y="230" type="line"/>
      <point x="1421" y="177"/>
      <point x="1372" y="167"/>
      <point x="1311" y="167" type="curve" smooth="yes"/>
      <point x="988" y="167" type="line"/>
      <point x="988" y="282" type="line"/>
      <point x="1352" y="282" type="line"/>
      <point x="1352" y="431" type="line"/>
      <point x="988" y="431" type="line"/>
      <point x="988" y="532" type="line"/>
      <point x="1337" y="532" type="line" smooth="yes"/>
      <point x="1378" y="532"/>
      <point x="1410" y="518"/>
      <point x="1432" y="490" type="curve"/>
      <point x="1432" y="700" type="line"/>
      <point x="683" y="700" type="line"/>
      <point x="631" y="710"/>
      <point x="573" y="716"/>
      <point x="509" y="716" type="curve" smooth="yes"/>
      <point x="221" y="716"/>
      <point x="25" y="630"/>
      <point x="25" y="338" type="curve" smooth="yes"/>
      <point x="25" y="40"/>
      <point x="236" y="-24"/>
    </contour>
    <contour>
      <point x="505" y="221" type="line"/>
      <point x="595" y="337" type="line"/>
      <point x="505" y="454" type="line"/>
      <point x="417" y="338" type="line"/>
    </contour>
    <contour>
      <point x="507" y="128" type="curve" smooth="yes"/>
      <point x="385" y="128"/>
      <point x="346" y="205"/>
      <point x="346" y="329" type="curve" smooth="yes"/>
      <point x="346" y="457"/>
      <point x="371" y="566"/>
      <point x="509" y="566" type="curve" smooth="yes"/>
      <point x="629" y="566"/>
      <point x="668" y="484"/>
      <point x="668" y="361" type="curve" smooth="yes"/>
      <point x="668" y="227"/>
      <point x="649" y="128"/>
    </contour>
  </outline>
</glyph>
<glyph name="Tbar" format="2">
  <advance width="890"/>
  <unicode hex="0166"/>
  <outline>
    <contour>
      <point x="160" y="203" type="line"/>
      <point x="734" y="203" type="line"/>
      <point x="734" y="376" type="line"/>
      <point x="160" y="376" type="line"/>
    </contour>
    <component base="T"/>
  </outline>
</glyph>
<glyph name="longs" format="2">
  <advance width="894"/>
  <unicode hex="017F"/>
  <anchor x="447" y="0" name="bottom"/>
  <anchor x="447" y="750" name="top"/>
  <outline>
    <contour>
      <point x="176" y="0" type="curve"/>
      <point x="510" y="0" type="line"/>
      <point x="477" y="21"/>
      <point x="460" y="51"/>
      <point x="460" y="91" type="curve" smooth="yes"/>
      <point x="460" y="532" type="line"/>
      <point x="775" y="532" type="line" smooth="yes"/>
      <point x="818" y="532"/>
      <point x="850" y="518"/>
      <point x="869" y="489" type="curve"/>
      <point x="869" y="700" type="line"/>
      <point x="176" y="700" type="line"/>
      <point x="211" y="682"/>
      <point x="227" y="644"/>
      <point x="227" y="605" type="curve" smooth="yes"/>
      <point x="227" y="408" type="line"/>
      <point x="25" y="408" type="line"/>
      <point x="25" y="259" type="line"/>
      <point x="227" y="259" type="line"/>
      <point x="227" y="95" type="line" smooth="yes"/>
      <point x="227" y="56"/>
      <point x="209" y="18"/>
    </contour>
  </outline>
</glyph>
<glyph name="florin" format="2">
  <advance width="880"/>
  <unicode hex="0192"/>
  <outline>
    <contour>
      <point x="100" y="0" type="line"/>
      <point x="352" y="0" type="line"/>
      <point x="406" y="235" type="line"/>
      <point x="629" y="235" type="line"/>
      <point x="663" y="384" type="line"/>
      <point x="441" y="384" type="line"/>
      <point x="467" y="497" type="line"/>
      <point x="736" y="497" type="line" smooth="yes"/>
      <point x="773" y="497"/>
      <point x="797" y="484"/>
      <point x="808" y="458" type="curve"/>
      <point x="855" y="665" type="line"/>
      <point x="210" y="665" type="line"/>
      <point x="238" y="644"/>
      <point x="241" y="610"/>
      <point x="233" y="574" type="curve" smooth="yes"/>
      <point x="189" y="384" type="line"/>
      <point x="59" y="384" type="line"/>
      <point x="25" y="235" type="line"/>
      <point x="155" y="235" type="line"/>
    </contour>
  </outline>
</glyph>
<glyph name="uni02B0" format="2">
  <advance width="329"/>
  <unicode hex="02B0"/>
  <outline>
    <contour>
      <point x="25" y="520" type="curve"/>
      <point x="127" y="520" type="line"/>
      <point x="123" y="525"/>
      <point x="121" y="533"/>
      <point x="120" y="544" type="curve"/>
      <point x="120" y="604" type="line"/>
      <point x="209" y="604" type="line"/>
      <point x="209" y="544" type="line" smooth="yes"/>
      <point x="209" y="533"/>
      <point x="207" y="525"/>
      <point x="203" y="520" type="curve"/>
      <point x="304" y="520" type="line"/>
      <point x="295" y="525"/>
      <point x="289" y="536"/>
      <point x="290" y="548" type="curve"/>
      <point x="290" y="693" type="line"/>
      <point x="289" y="704"/>
      <point x="295" y="715"/>
      <point x="304" y="720" type="curve"/>
      <point x="203" y="720" type="line"/>
      <point x="207" y="715"/>
      <point x="209" y="707"/>
      <point x="209" y="696" type="curve" smooth="yes"/>
      <point x="209" y="645" type="line"/>
      <point x="120" y="645" type="line"/>
      <point x="120" y="696" type="line" smooth="yes"/>
      <point x="121" y="707"/>
      <point x="123" y="715"/>
      <point x="127" y="720" type="curve"/>
      <point x="26" y="720" type="line"/>
      <point x="34" y="715"/>
      <point x="40" y="704"/>
      <point x="40" y="693" type="curve" smooth="yes"/>
      <point x="40" y="548" type="line" smooth="yes"/>
      <point x="40" y="536"/>
      <point x="34" y="525"/>
    </contour>
  </outline>
</glyph>
<glyph name="gravecomb" format="2">
  <advance width="0"/>
  <unicode hex="0300"/>
  <anchor x="312" y="700" name="_top"/>
  <anchor x="224" y="942" name="top"/>
  <outline>
    <contour>
      <point x="25" y="942" type="line"/>
      <point x="249" y="750" type="line"/>
      <point x="422" y="750" type="line"/>
      <point x="337" y="899" type="line"/>
      <point x="322" y="942" type="line"/>
    </contour>
  </outline>
</glyph>
<glyph name="acutecomb" format="2">
  <advance width="0"/>
  <unicode hex="0301"/>
  <anchor x="238" y="700" name="_top"/>
  <anchor x="298" y="881" name="top"/>
  <outline>
    <contour>
      <point x="496" y="942" type="line"/>
      <point x="199" y="942" type="line"/>
      <point x="184" y="899" type="line"/>
      <point x="99" y="750" type="line"/>
      <point x="272" y="750" type="line"/>
    </contour>
  </outline>
</glyph>
<glyph name="uni0302" format="2">
  <advance width="0"/>
  <unicode hex="0302"/>
  <anchor x="209" y="700" name="_top"/>
  <anchor x="209" y="947" name="top"/>
  <outline>
    <contour>
      <point x="5" y="750" type="line"/>
      <point x="123" y="750" type="line"/>
      <point x="207" y="816" type="line"/>
      <point x="291" y="750" type="line"/>
      <point x="413" y="750" type="line"/>
      <point x="269" y="947" type="line"/>
      <point x="145" y="947" type="line"/>
    </contour>
  </outline>
</glyph>
<glyph name="tildecomb" format="2">
  <advance width="0"/>
  <unicode hex="0303"/>
  <anchor x="257" y="700" name="_top"/>
  <anchor x="274" y="950" name="top"/>
  <outline>
    <contour>
      <point x="70" y="750" type="curve"/>
      <point x="90" y="790"/>
      <point x="110" y="818"/>
      <point x="149" y="818" type="curve" smooth="yes"/>
      <point x="197" y="818"/>
      <point x="309" y="763"/>
      <point x="365" y="763" type="curve" smooth="yes"/>
      <point x="418" y="763"/>
      <point x="467" y="832"/>
      <point x="467" y="950" type="curve"/>
      <point x="452" y="911"/>
      <point x="430" y="880"/>
      <point x="389" y="880" type="curve" smooth="yes"/>
      <point x="344" y="880"/>
      <point x="226" y="932"/>
      <point x="169" y="932" type="curve" smooth="yes"/>
      <point x="124" y="932"/>
      <point x="70" y="873"/>
    </contour>
  </outline>
</glyph>
<glyph name="uni0306" format="2">
  <advance width="0"/>
  <unicode hex="0306"/>
  <anchor x="250" y="700" name="_top"/>
  <anchor x="250" y="960" name="top"/>
  <outline>
    <contour>
      <point x="250" y="750" type="curve" smooth="yes"/>
      <point x="382" y="750"/>
      <point x="476" y="823"/>
      <point x="474" y="949" type="curve"/>
      <point x="325" y="949" type="line"/>
      <point x="325" y="910"/>
      <point x="298" y="886"/>
      <point x="250" y="886" type="curve" smooth="yes"/>
      <point x="199" y="886"/>
      <point x="174" y="913"/>
      <point x="174" y="949" type="curve"/>
      <point x="25" y="949" type="line"/>
      <point x="28" y="820"/>
      <point x="123" y="750"/>
    </contour>
  </outline>
</glyph>
<glyph name="uni0307" format="2">
  <advance width="0"/>
  <unicode hex="0307"/>
  <anchor x="138" y="700" name="_top"/>
  <anchor x="138" y="950" name="top"/>
  <outline>
    <contour>
      <point x="138" y="751" type="curve" smooth="yes"/>
      <point x="199" y="751"/>
      <point x="251" y="790"/>
      <point x="251" y="850" type="curve" smooth="yes"/>
      <point x="251" y="909"/>
      <point x="210" y="950"/>
      <point x="138" y="950" type="curve" smooth="yes"/>
      <point x="67" y="950"/>
      <point x="25" y="908"/>
      <point x="25" y="850" type="curve" smooth="yes"/>
      <point x="25" y="789"/>
      <point x="71" y="751"/>
    </contour>
  </outline>
</glyph>
<glyph name="uni0308" format="2">
  <advance width="0"/>
  <unicode hex="0308"/>
  <anchor x="272" y="700" name="_top"/>
  <anchor x="272" y="950" name="top"/>
  <outline>
    <contour>
      <point x="404" y="749" type="curve" smooth="yes"/>
      <point x="466" y="749"/>
      <point x="519" y="790"/>
      <point x="519" y="849" type="curve" smooth="yes"/>
      <point x="519" y="909"/>
      <point x="477" y="950"/>
      <point x="404" y="950" type="curve" smooth="yes"/>
      <point x="329" y="950"/>
      <point x="290" y="905"/>
      <point x="290" y="849" type="curve" smooth="yes"/>
      <point x="290" y="788"/>
      <point x="337" y="749"/>
    </contour>
    <contour>
      <point x="139" y="749" type="curve" smooth="yes"/>
      <point x="202" y="749"/>
      <point x="253" y="790"/>
      <point x="253" y="849" type="curve" smooth="yes"/>
      <point x="253" y="909"/>
      <point x="212" y="950"/>
      <point x="139" y="950" type="curve" smooth="yes"/>
      <point x="66" y="950"/>
      <point x="25" y="908"/>
      <point x="25" y="849" type="curve" smooth="yes"/>
      <point x="25" y="788"/>
      <point x="72" y="749"/>
    </contour>
  </outline>
</glyph>
<glyph name="uni030A" format="2">
  <advance width="0"/>
  <unicode hex="030A"/>
  <anchor x="139" y="700" name="_top"/>
  <anchor x="139" y="949" name="top"/>
  <outline>
    <contour>
      <point x="139" y="727" type="curve" smooth="yes"/>
      <point x="214" y="727"/>
      <point x="277" y="777"/>
      <point x="277" y="849" type="curve" smooth="yes"/>
      <point x="277" y="921"/>
      <point x="227" y="971"/>
      <point x="139" y="971" type="curve" smooth="yes"/>
      <point x="50" y="971"/>
      <point x="0" y="920"/>
      <point x="0" y="849" type="curve" smooth="yes"/>
      <point x="0" y="774"/>
      <point x="57" y="727"/>
    </contour>
    <contour>
      <point x="139" y="817" type="curve" smooth="yes"/>
      <point x="114" y="817"/>
      <point x="100" y="832"/>
      <point x="100" y="848" type="curve" smooth="yes"/>
      <point x="100" y="867"/>
      <point x="114" y="880"/>
      <point x="139" y="880" type="curve" smooth="yes"/>
      <point x="163" y="880"/>
      <point x="177" y="868"/>
      <point x="177" y="848" type="curve" smooth="yes"/>
      <point x="177" y="832"/>
      <point x="163" y="817"/>
    </contour>
  </outline>
</glyph>
<glyph name="uni030B" format="2">
  <advance width="0"/>
  <unicode hex="030B"/>
  <anchor x="378" y="700" name="_top"/>
  <anchor x="519" y="957" name="top"/>
  <outline>
    <contour>
      <point x="512" y="942" type="line"/>
      <point x="215" y="942" type="line"/>
      <point x="200" y="899" type="line"/>
      <point x="115" y="750" type="line"/>
      <point x="288" y="750" type="line"/>
    </contour>
    <contour>
      <point x="832" y="942" type="line"/>
      <point x="535" y="942" type="line"/>
      <point x="520" y="899" type="line"/>
      <point x="435" y="750" type="line"/>
      <point x="608" y="750" type="line"/>
    </contour>
  </outline>
</glyph>
<glyph name="uni0326" format="2">
  <advance width="0"/>
  <unicode hex="0326"/>
  <anchor x="162" y="0" name="_bottom"/>
  <anchor x="0" y="0" name="bottom"/>
  <outline>
    <contour>
      <point x="36" y="-274" type="curve"/>
      <point x="184" y="-274" type="line"/>
      <point x="207" y="-223"/>
      <point x="239" y="-156"/>
      <point x="279" y="-74" type="curve"/>
      <point x="53" y="-74" type="line"/>
      <point x="53" y="-93"/>
      <point x="54" y="-106"/>
      <point x="53" y="-115" type="curve" smooth="yes"/>
      <point x="51" y="-143"/>
      <point x="44" y="-233"/>
    </contour>
  </outline>
</glyph>
<glyph name="uni0327" format="2">
  <advance width="0"/>
  <unicode hex="0327"/>
  <guideline x="47" y="-102" angle="0"/>
  <anchor x="218" y="0" name="_bottom"/>
  <anchor x="218" y="-250" name="bottom"/>
  <outline>
    <contour>
      <point x="266" y="11" type="curve"/>
      <point x="164" y="11" type="line"/>
      <point x="128" y="-63" type="line"/>
      <point x="198" y="-89" type="line"/>
      <point x="201" y="-98"/>
      <point x="203" y="-106"/>
      <point x="203" y="-113" type="curve" smooth="yes"/>
      <point x="203" y="-136"/>
      <point x="186" y="-150"/>
      <point x="154" y="-150" type="curve" smooth="yes"/>
      <point x="118" y="-150"/>
      <point x="80" y="-134"/>
      <point x="47" y="-102" type="curve"/>
      <point x="47" y="-221" type="line"/>
      <point x="88" y="-253"/>
      <point x="150" y="-269"/>
      <point x="210" y="-269" type="curve" smooth="yes"/>
      <point x="348" y="-269"/>
      <point x="397" y="-207"/>
      <point x="397" y="-138" type="curve" smooth="yes"/>
      <point x="397" y="-81"/>
      <point x="357" y="-29"/>
    </contour>
  </outline>
</glyph>
<glyph name="uni0328" format="2">
  <advance width="0"/>
  <unicode hex="0328"/>
  <guideline x="78" y="-269" angle="0"/>
  <guideline x="47" y="-102" angle="0"/>
  <guideline x="58" y="-221" angle="0"/>
  <anchor x="236" y="0" name="_ogonek"/>
  <outline>
    <contour>
      <point x="236" y="0" type="curve"/>
      <point x="94" y="0" type="line"/>
      <point x="40" y="-37"/>
      <point x="-7" y="-86"/>
      <point x="-7" y="-154" type="curve" smooth="yes"/>
      <point x="-7" y="-241"/>
      <point x="67" y="-270"/>
      <point x="154" y="-270" type="curve" smooth="yes"/>
      <point x="215" y="-270"/>
      <point x="269" y="-255"/>
      <point x="314" y="-221" type="curve"/>
      <point x="314" y="-102" type="line"/>
      <point x="280" y="-133"/>
      <point x="244" y="-149"/>
      <point x="203" y="-149" type="curve" smooth="yes"/>
      <point x="171" y="-149"/>
      <point x="157" y="-134"/>
      <point x="157" y="-112" type="curve" smooth="yes"/>
      <point x="157" y="-69"/>
      <point x="198" y="-30"/>
    </contour>
  </outline>
</glyph>
<glyph name="uni0394" format="2">
  <advance width="796"/>
  <unicode hex="0394"/>
  <outline>
    <contour>
      <point x="25" y="0" type="line"/>
      <point x="771" y="0" type="line"/>
      <point x="525" y="667" type="line"/>
      <point x="271" y="667" type="line"/>
    </contour>
    <contour>
      <point x="308" y="176" type="line"/>
      <point x="398" y="469" type="line"/>
      <point x="488" y="176" type="line"/>
    </contour>
  </outline>
</glyph>
<glyph name="uni03A9" format="2">
  <advance width="780"/>
  <unicode hex="03A9"/>
  <outline>
    <contour>
      <point x="42" y="0" type="line"/>
      <point x="340" y="0" type="line"/>
      <point x="340" y="176" type="line"/>
      <point x="269" y="197"/>
      <point x="230" y="263"/>
      <point x="230" y="335" type="curve" smooth="yes"/>
      <point x="230" y="420"/>
      <point x="281" y="499"/>
      <point x="390" y="499" type="curve" smooth="yes"/>
      <point x="499" y="499"/>
      <point x="550" y="420"/>
      <point x="550" y="335" type="curve" smooth="yes"/>
      <point x="550" y="263"/>
      <point x="511" y="197"/>
      <point x="440" y="176" type="curve"/>
      <point x="440" y="0" type="line"/>
      <point x="738" y="0" type="line"/>
      <point x="738" y="176" type="line"/>
      <point x="635" y="176" type="line"/>
      <point x="703" y="227"/>
      <point x="755" y="298"/>
      <point x="755" y="383" type="curve" smooth="yes"/>
      <point x="755" y="579"/>
      <point x="587" y="678"/>
      <point x="390" y="678" type="curve" smooth="yes"/>
      <point x="195" y="678"/>
      <point x="25" y="580"/>
      <point x="25" y="383" type="curve" smooth="yes"/>
      <point x="25" y="298"/>
      <point x="77" y="227"/>
      <point x="145" y="176" type="curve"/>
      <point x="42" y="176" type="line"/>
    </contour>
  </outline>
</glyph>
<glyph name="uni03BC" format="2">
  <advance width="900"/>
  <unicode hex="03BC"/>
  <outline>
    <contour>
      <point x="328" y="75" type="line"/>
      <point x="401" y="64"/>
      <point x="536" y="65"/>
      <point x="628" y="85" type="curve" smooth="yes"/>
      <point x="760" y="114"/>
      <point x="829" y="195"/>
      <point x="829" y="330" type="curve" smooth="yes"/>
      <point x="829" y="637" type="line" smooth="yes"/>
      <point x="829" y="674"/>
      <point x="844" y="702"/>
      <point x="875" y="721" type="curve"/>
      <point x="566" y="721" type="line"/>
      <point x="580" y="706"/>
      <point x="588" y="680"/>
      <point x="588" y="641" type="curve" smooth="yes"/>
      <point x="588" y="359" type="line" smooth="yes"/>
      <point x="588" y="282"/>
      <point x="565" y="226"/>
      <point x="473" y="226" type="curve" smooth="yes"/>
      <point x="396" y="226"/>
      <point x="328" y="251"/>
      <point x="328" y="345" type="curve" smooth="yes"/>
      <point x="328" y="641" type="line" smooth="yes"/>
      <point x="328" y="679"/>
      <point x="335" y="706"/>
      <point x="348" y="721" type="curve"/>
      <point x="25" y="721" type="line"/>
      <point x="54" y="703"/>
      <point x="70" y="676"/>
      <point x="70" y="641" type="curve" smooth="yes"/>
      <point x="70" y="-250" type="line"/>
      <point x="328" y="-250" type="line"/>
    </contour>
  </outline>
</glyph>
<glyph name="pi" format="2">
  <advance width="695"/>
  <unicode hex="03C0"/>
  <outline>
    <contour>
      <point x="89" y="0" type="line"/>
      <point x="269" y="0" type="line"/>
      <point x="269" y="343" type="line"/>
      <point x="427" y="343" type="line"/>
      <point x="427" y="0" type="line"/>
      <point x="607" y="0" type="line"/>
      <point x="607" y="343" type="line"/>
      <point x="670" y="343" type="line"/>
      <point x="670" y="500" type="line"/>
      <point x="25" y="500" type="line"/>
      <point x="25" y="343" type="line"/>
      <point x="89" y="343" type="line"/>
    </contour>
  </outline>
</glyph>
<glyph name="uni1E9E" format="2">
  <advance width="982"/>
  <unicode hex="1E9E"/>
  <outline>
    <contour>
      <point x="75" y="437" type="curve" smooth="yes"/>
      <point x="75" y="123" type="line"/>
      <point x="75" y="88"/>
      <point x="73" y="64"/>
      <point x="68" y="52" type="curve" smooth="yes"/>
      <point x="59" y="29"/>
      <point x="45" y="12"/>
      <point x="25" y="0" type="curve"/>
      <point x="373" y="0" type="line"/>
      <point x="370" y="3"/>
      <point x="367" y="18"/>
      <point x="364" y="44" type="curve" smooth="yes"/>
      <point x="362" y="65"/>
      <point x="358" y="99"/>
      <point x="358" y="148" type="curve" smooth="yes"/>
      <point x="358" y="475" type="line" smooth="yes"/>
      <point x="358" y="526"/>
      <point x="416" y="547"/>
      <point x="501" y="547" type="curve" smooth="yes"/>
      <point x="580" y="547"/>
      <point x="633" y="536"/>
      <point x="633" y="483" type="curve" smooth="yes"/>
      <point x="633" y="437"/>
      <point x="591" y="411"/>
      <point x="492" y="411" type="curve" smooth="yes"/>
      <point x="450" y="411"/>
      <point x="427" y="412"/>
      <point x="402" y="415" type="curve"/>
      <point x="402" y="269" type="line"/>
      <point x="432" y="276"/>
      <point x="450" y="278"/>
      <point x="518" y="278" type="curve" smooth="yes"/>
      <point x="618" y="278"/>
      <point x="633" y="238"/>
      <point x="633" y="211" type="curve" smooth="yes"/>
      <point x="633" y="165"/>
      <point x="586" y="145"/>
      <point x="498" y="145" type="curve" smooth="yes"/>
      <point x="454" y="145"/>
      <point x="424" y="150"/>
      <point x="404" y="155" type="curve"/>
      <point x="429" y="0" type="line"/>
      <point x="466" y="-13"/>
      <point x="502" y="-20"/>
      <point x="578" y="-20" type="curve" smooth="yes"/>
      <point x="781" y="-20"/>
      <point x="956" y="57"/>
      <point x="956" y="195" type="curve" smooth="yes"/>
      <point x="956" y="284"/>
      <point x="881" y="361"/>
      <point x="723" y="361" type="curve"/>
      <point x="724" y="366" type="line"/>
      <point x="867" y="387"/>
      <point x="916" y="474"/>
      <point x="916" y="536" type="curve" smooth="yes"/>
      <point x="916" y="631"/>
      <point x="810" y="720"/>
      <point x="521" y="720" type="curve" smooth="yes"/>
      <point x="257" y="720"/>
      <point x="75" y="635"/>
    </contour>
  </outline>
</glyph>
<glyph name="endash" format="2">
  <advance width="600"/>
  <unicode hex="2013"/>
  <outline>
    <contour>
      <point x="25" y="179" type="line"/>
      <point x="575" y="179" type="line"/>
      <point x="575" y="306" type="line"/>
      <point x="25" y="306" type="line"/>
    </contour>
  </outline>
</glyph>
<glyph name="emdash" format="2">
  <advance width="1000"/>
  <unicode hex="2014"/>
  <outline>
    <contour>
      <point x="25" y="179" type="line"/>
      <point x="975" y="179" type="line"/>
      <point x="975" y="306" type="line"/>
      <point x="25" y="306" type="line"/>
    </contour>
  </outline>
</glyph>
<glyph name="bullet" format="2">
  <advance width="600"/>
  <unicode hex="2022"/>
  <outline>
    <contour>
      <point x="302" y="174" type="curve" smooth="yes"/>
      <point x="411" y="174"/>
      <point x="472" y="226"/>
      <point x="472" y="315" type="curve" smooth="yes"/>
      <point x="472" y="402"/>
      <point x="411" y="454"/>
      <point x="302" y="454" type="curve" smooth="yes"/>
      <point x="190" y="454"/>
      <point x="129" y="402"/>
      <point x="129" y="315" type="curve" smooth="yes"/>
      <point x="129" y="226"/>
      <point x="190" y="174"/>
    </contour>
  </outline>
</glyph>
<glyph name="guilsinglleft" format="2">
  <advance width="445"/>
  <unicode hex="2039"/>
  <outline>
    <contour>
      <point x="25" y="302" type="line"/>
      <point x="420" y="144" type="line"/>
      <point x="420" y="247" type="line"/>
      <point x="117" y="358" type="line"/>
      <point x="420" y="466" type="line"/>
      <point x="420" y="569" type="line"/>
      <point x="25" y="414" type="line"/>
    </contour>
  </outline>
</glyph>
<glyph name="guilsinglright" format="2">
  <advance width="445"/>
  <unicode hex="203A"/>
  <outline>
    <contour>
      <point x="420" y="302" type="line"/>
      <point x="420" y="414" type="line"/>
      <point x="25" y="569" type="line"/>
      <point x="25" y="466" type="line"/>
      <point x="328" y="358" type="line"/>
      <point x="25" y="247" type="line"/>
      <point x="25" y="144" type="line"/>
    </contour>
  </outline>
</glyph>
<glyph name="Euro" format="2">
  <advance width="837"/>
  <unicode hex="20AC"/>
  <anchor x="501" y="0" name="bottom"/>
  <anchor x="539" y="700" name="top"/>
  <outline>
    <contour>
      <point x="515" y="-24" type="curve" smooth="yes"/>
      <point x="634" y="-24"/>
      <point x="730" y="-9"/>
      <point x="812" y="42" type="curve"/>
      <point x="812" y="259" type="line"/>
      <point x="746" y="196"/>
      <point x="662" y="164"/>
      <point x="574" y="164" type="curve" smooth="yes"/>
      <point x="412" y="164"/>
      <point x="359" y="256"/>
      <point x="359" y="362" type="curve" smooth="yes"/>
      <point x="359" y="491"/>
      <point x="453" y="537"/>
      <point x="549" y="537" type="curve" smooth="yes"/>
      <point x="632" y="537"/>
      <point x="716" y="512"/>
      <point x="802" y="440" type="curve"/>
      <point x="802" y="666" type="line"/>
      <point x="721" y="701"/>
      <point x="631" y="719"/>
      <point x="530" y="719" type="curve" smooth="yes"/>
      <point x="164" y="719"/>
      <point x="68" y="519"/>
      <point x="68" y="337" type="curve" smooth="yes"/>
      <point x="68" y="66"/>
      <point x="278" y="-24"/>
    </contour>
    <contour>
      <point x="0" y="374" type="line"/>
      <point x="695" y="374" type="line"/>
      <point x="695" y="464" type="line"/>
      <point x="0" y="464" type="line"/>
    </contour>
    <contour>
      <point x="0" y="234" type="line"/>
      <point x="695" y="234" type="line"/>
      <point x="695" y="324" type="line"/>
      <point x="0" y="324" type="line"/>
    </contour>
  </outline>
</glyph>
<glyph name="minus" format="2">
  <advance width="584"/>
  <unicode hex="2212"/>
  <outline>
    <contour>
      <point x="559" y="423" type="line"/>
      <point x="25" y="423" type="line"/>
      <point x="25" y="322" type="line"/>
      <point x="559" y="322" type="line"/>
    </contour>
  </outline>
</glyph>
<glyph name=".notdef" format="2">
  <advance width="726"/>
  <outline>
    <contour>
      <point x="25" y="0" type="line"/>
      <point x="701" y="0" type="line"/>
      <point x="701" y="700" type="line"/>
      <point x="25" y="700" type="line"/>
    </contour>
    <contour>
      <point x="181" y="138" type="line"/>
      <point x="181" y="562" type="line"/>
      <point x="545" y="562" type="line"/>
      <point x="545" y="138" type="line"/>
    </contour>
  </outline>
</glyph>
<glyph name="uni030C.alt" format="2">
  <advance width="0"/>
  <anchor x="3" y="700" name="_topright"/>
  <outline>
    <contour>
      <point x="69" y="500" type="curve"/>
      <point x="200" y="500" type="line"/>
      <point x="223" y="551"/>
      <point x="255" y="618"/>
      <point x="295" y="700" type="curve"/>
      <point x="106" y="700" type="line"/>
      <point x="106" y="681"/>
      <point x="105" y="668"/>
      <point x="103" y="659" type="curve" smooth="yes"/>
      <point x="96" y="631"/>
      <point x="77" y="541"/>
    </contour>
  </outline>
</glyph>
